<svg xmlns="http://www.w3.org/2000/svg" width="115" height="87" viewBox="0 0 115 87"><defs><style>.cls-1{fill:none}</style><style>path{fill:#fff}</style></defs><path class="cls-1" d="M18 30h-.1a2.77 2.77 0 01-.05.55h.26zm-.21 1.16h.06a.21.21 0 01.15 0c0 .09.13 0 .19.05a.68.68 0 010-.22c.05-.23-.21-.13-.32-.15s0 .18-.08.24zm.83-.52h.51l-.13-.6V30a3.56 3.56 0 00-.36 0l-.06.64h.08zm-.97.5a1 1 0 010-.33h-.13v.35c.04.02.08-.08.13-.02zm5.71-.9c-.05-.06 0-.17 0-.27s-.07 0-.09 0c0 .22-.08.41-.13.64h.23c.01-.14-.05-.26-.01-.37zm-2.26-.43l-.12-.01.02.03.1-.02zm1.51.19h-.19c-.06-.15-.11.07-.19 0 0 .22-.1.46-.15.71a4.16 4.16 0 00.6-.05c-.03-.25-.04-.48-.07-.66zm-5.49.47a1.1 1.1 0 000-.4c-.26 0-.1.24-.17.39zm2.56.19c-.1-.19 0-.42 0-.65h-.11a6.48 6.48 0 000 .65zm.6-.86h.06v.01h-.06zm-2.63.65c0-.14.12-.36 0-.46 0 .18 0 .36-.07.54h.09zm-3.14.5s-.16-.05-.14 0a.15.15 0 00-.16 0v-.15c0-.02.14 0 .21 0s0-.06 0-.09a4.78 4.78 0 00-.5-.05l-.07.32a5.62 5.62 0 00.6.06s.01-.04.06-.09zm.28.62s.32.1.46.09c.26 0 .42.07.64 0h.17v-.3h-.53c0 .09.05.22 0 .27a2.28 2.28 0 01-.06-.28h-.72v.26h.09zm-.01-.49a2.59 2.59 0 00.53 0c.23 0 0-.22 0-.32a1.86 1.86 0 01-.52 0v.1h.15c.02 0-.22.01-.16.22zm-1.24-.13v-.28a1.87 1.87 0 01-.54.05v.19c.2 0 .4.09.54.04zm.46.6c0-.05 0-.07.05-.05.06 0 .15.1.23 0s.19.09.29 0-.06-.13 0-.22h-.67a.13.13 0 000 .15s.1.11.1.12zm2.91-.39c.09.06.18-.05.28 0v-.19c.07-.31-.24-.11-.4-.17v.36c0 .13.08.03.12 0zm-.28-.02a1.68 1.68 0 010-.36h-.22v.33a.45.45 0 00.22.03zm-.03-.86s0-.06-.08-.09-.06.14-.09.23h.18s.04-.13-.01-.14zm-.52.84l-.08-.38h-.39c-.08.06 0 .19 0 .29.18.05.31-.03.47.09zm-.08-.83c0-.09-.13 0-.17 0s.17.08.17 0zm8.46.16c.11 0 .19-.08.28 0v-.18c-.05-.09-.23-.06-.27 0s-.03.07-.01.18zm2.54.4c0 .06.18 0 .28 0a.47.47 0 000-.18 1.86 1.86 0 01-.46 0c-.1 0-.06.13-.05.18s.13.05.23 0zm1.04.1h-.12l-.17.03.29-.03zm-1.1.05h-.26.1s.13.08.16 0zm1.22-.22v-.18c0-.03-.36 0-.51.08v.14zm-1.29.73c.17.05.3 0 .46 0v-.11h-.69v.13zm.22-.51s-.15 0-.13.06a1.16 1.16 0 00.31-.06c-.08 0-.13.09-.18 0zM7.51 21.79a2.43 2.43 0 001.32-.35 1.06 1.06 0 00.36-.86c-.08-.15-.24-.19-.35-.31a.7.7 0 01-.09-.58.63.63 0 01.52-.41.6.6 0 01.55 1c0 .22.19.28.31.42A1.8 1.8 0 0012 21a1.23 1.23 0 00.57-1c-.06 0-.07 0-.07.09s-.08 0-.13 0c-.18 0-.26 0-.39-.08a.64.64 0 01-.6-.09c-.14-.39.33-.51.54-.69v-.08a.92.92 0 00.26-.28 2.42 2.42 0 01-.11-.54c-.22.19-.41.46-.65.69-.1 0-.22.06-.33 0v-.09c-.53-.15-1.1-.25-1.63-.36-.34-.13-.74-.15-1.05-.24a2.15 2.15 0 01-.32-.08 15.39 15.39 0 01-.91-2.83c-.08-.32-.05-.76-.13-1-.05.05-.08 0-.14 0 0-.09-.13-.06-.19-.12s-.1 0-.16 0a5.17 5.17 0 00-.81.68 3 3 0 00-.87 1.55 2.44 2.44 0 001.4 2.37v.08c-.36.34-.7.72-1.08 1a2.42 2.42 0 01.73.72 2.5 2.5 0 01.92-.49c.19 0 .45-.09.52.13s-.11.39-.18.54S7 21 7 21.15c-.15.06-.18.26-.34.36.12.17.34.19.51.24s.24-.03.34.04zM30.55 76a4.17 4.17 0 00-4.24 4.36C26.3 83.12 28 85 30.55 85 33.3 85 35 83.21 35 80.37A4.28 4.28 0 0030.55 76zm-22-49.91h-.08c0 .05 0 0 .06.06s-.15.07-.19.17v-.08.15c0 .04-.05.11-.11.09-.1-.2-.15-.4-.41-.4.1.23.26.46.37.72h.76zm16.18 4.69c-.09.06-.32-.08-.31.11a.07.07 0 01-.11 0c0-.17-.18-.06-.26-.09v.47h.82c-.06-.18-.04-.42-.14-.49zm-.27-.56v-.01.01zm-11.92.32a.18.18 0 00.12-.07.14.14 0 00-.12.07zm13.06.64v-.41h-.42c0 .15 0 .28-.05.44s.13 0 .18 0 .22.02.29-.03zm-1.32-1.03h-.1s0-.06-.06-.05 0 .26 0 .36a.68.68 0 00.16-.18c-.04-.02-.05-.1 0-.13zm-.65.39a2.54 2.54 0 00-.07-.55 2 2 0 000 .56zm2.37-.32h-.07s.07.02.07 0zm0 1.26l.47.07v-.15h-.72l-.05.22h.19s.02-.14.11-.14zm-.77-1.18zm1.19.75h-.05a.13.13 0 010-.22v-.12a3.91 3.91 0 01-.55 0l-.06.42.64-.05zm-.97-.73c-.06 0-.17-.08-.22 0zm7.91-5.54c0-.1.08-.07.12-.1a15.29 15.29 0 00-2.21-.85c-.87-.26-1.81-.47-2.69-.68-.59-.05-1.15-.24-1.77-.28s-1.17-.2-1.76-.24c-.24-.1-.48 0-.72-.12-1.05-.1-2.17-.19-3.23-.27v.05c-.08-.05-.15 0-.23 0h-.2c-.08 0-.08.07-.09 0s-.1 0-.15 0a2.41 2.41 0 00-.42 0 26 26 0 00-2.6.21h-.18c-1.32.06-2.55.36-3.83.51a24.68 24.68 0 00-4.79 1.29c-.37.2-.83.33-1.2.56-.08.06 0 .18-.1.2s0 .05.05.05 0 .08 0 .1a2.84 2.84 0 001.17-.27c1.09-.38 2.3-.68 3.45-1 .86-.17 1.74-.41 2.61-.54l1.28-.24a1.83 1.83 0 00.36-.07c.33 0 .74-.11 1.09-.13a9.78 9.78 0 011.51-.12 5.93 5.93 0 011.18 0h1.19c.12 0 .21-.09.28 0a21.66 21.66 0 013.6.32 5.56 5.56 0 01.82.11.31.31 0 01.21 0c.47.06.93.18 1.44.28.69.17 1.47.32 2.14.5l.26.07c.21.08.43.12.65.19s.24.06.32.08c.68.22 1.36.4 2 .63a1.31 1.31 0 00.56.17.35.35 0 01.37-.08c0-.17-.3-.2-.49-.33zm-.66 1.08c-.16.31-.29.65-.46 1h.46a2.78 2.78 0 01.12-.48c.1-.12.08-.28.16-.4a1.64 1.64 0 01-.28-.12zm-1.07 2.28l-.41.86a1.45 1.45 0 01.37.18c.14 0 .17-.2.24-.3s-.07-.06-.05-.09c.12-.23-.1-.47-.15-.65zm-22.22.25c.1.1 0 .23.09.36s.09.23.21.28a.14.14 0 01.05-.13.1.1 0 01.13.05l-.37-.82z"/><path class="cls-1" d="M27.18 28.55h-.13c-1.26-.17-2.36-.27-3.71-.34-1.08-.05-2.32-.11-3.42-.09-.85 0-2 .08-2.92.12-.59 0-1.17.1-1.77.16a29.36 29.36 0 00-3.54.6 9.37 9.37 0 00-2.7 1c.09.14-.13.13-.18.19-.13.09-.19.22-.33.29h.29c.1 0 .05.12 0 .15l-.31.05c0 .1-.12 0-.14.06s-.1.08-.17.1-.08.23 0 .33a1.63 1.63 0 01.41.26c0 .08.15.17 0 .22a.3.3 0 01.11.23 3.91 3.91 0 01.69.51 12 12 0 001.75.62 12.73 12.73 0 001.59.4c.83.09 1.63.33 2.55.36h.42c1 .09 1.94.19 3 .19h3.35c.73 0 1.58 0 2.3-.1.9-.08 1.92-.18 2.85-.33.42-.05.84-.13 1.24-.19a12.38 12.38 0 001.26-.28A8.17 8.17 0 0032.46 32c-.06 0-.05-.05-.1-.05-.09 0-.11-.05-.13-.12s.23-.1.28-.12a.44.44 0 00.32-.05c0-.06.13-.1.12-.18s0 .05.06 0 .09-.15 0-.17A.85.85 0 0133 31c0-.09-.07-.05-.1-.13s0-.12.09-.12-.07-.1-.09 0c0-.1-.18-.13-.27-.17a.65.65 0 01-.3-.18c0-.06.05-.06 0-.12s0 0-.08 0-.15 0-.26-.08-.1-.06-.08-.13.13 0 .22 0l.12.05-.1-.12a17 17 0 00-4.97-1.45zm2.18 3.38a5.28 5.28 0 01-.83.2 4.25 4.25 0 01-.5.13 24.24 24.24 0 01-3.35.44c-.62.1-1.26.06-1.9.12-.28.05-.64 0-.91.05h-1c-.47.08-.93-.06-1.39 0-1.16 0-2.27-.08-3.38-.19a23.71 23.71 0 01-2.74-.36 6.26 6.26 0 01-2.57-.92.54.54 0 01-.14-.4c.09-.45.63-.55 1-.73a11.46 11.46 0 011.66-.45 5.68 5.68 0 01.61-.09c.2-.08.41 0 .6-.12.11 0 .24 0 .36-.08s.33-.07.5 0c.36 0 .62-.09 1-.09 0-.08.16 0 .21 0h.55a.88.88 0 01.32 0 18.64 18.64 0 012-.08h1.06c.07-.09.15 0 .24 0h1.09c.71 0 1.45.05 2.15.09a7.51 7.51 0 00.76.05 5 5 0 00.63.06 1.57 1.57 0 00.35 0h.28a1 1 0 01.32 0h.05c.71.13 1.33.19 2 .37a4.1 4.1 0 01.55.14 3.29 3.29 0 011.4.65.54.54 0 01.13.37c-.15.51-.69.65-1.11.85z"/><path class="cls-1" d="M9.6 26.12c-.08 0-.08-.11-.15-.13s0-.11-.07-.16-.14 0-.11.08a.2.2 0 01-.11.06c.08.28.17.56.23.86h.63c-.1.3-.23.61-.35.9l.27 1v-.06c.11 0 .15.09.26.1s.06-.17.12-.3 0 0 .08 0-.06-.14-.06-.19h.05c-.07-.05 0-.12 0-.15a.06.06 0 01.08 0c.08.22.17.41.24.62a21.58 21.58 0 014.3-.89c.36-.07.85-.09 1.24-.13s.05-.3.28-.32c.07.06 0 .18 0 .28a2.31 2.31 0 00.42 0c.44 0 .83-.05 1.23-.09a4.63 4.63 0 00.94 0c.55.05 1.15 0 1.68 0h.08c1 0 2 0 2.91.09.11.06.27 0 .36.05a3.06 3.06 0 01.59 0c.11.05.32 0 .46.07s.64.08.93.09c.53.07 1.15.22 1.68.26h.12c.64.14 1.35.27 2 .46a4.32 4.32 0 00.58.14c0-.05.08-.09 0-.13v-.14c-.06 0 0 0 0-.06a.46.46 0 00.13-.44.69.69 0 01.23 0c0 .13 0 .27-.08.39s0 .1 0 .17a.29.29 0 01-.12.28s-.08 0-.06.06l.46.17c.1-.4.23-.79.33-1.18l-.35-.94a3.39 3.39 0 01.61 0c.08-.38.24-.79.31-1.19-.13 0-.26-.08-.4-.1-.46 1-.87 2-1.35 2.91h-.05c.33-1 .57-2.05.9-3l-.54-.14s0 .07-.05.05a2.61 2.61 0 01-.16.45c-.06.14-.05.34-.22.39-.15-.13.08-.28.06-.45a1.11 1.11 0 01.14-.5l-1 2.51h-.05c.26-.92.49-1.79.73-2.74l-.3-.13c-.27-.07-.64-.13-.91-.22-.06.15-.08.28-.2.39s-.09 0-.11 0a1.74 1.74 0 01.13-.33l-.26-.06c-.09 0-.16-.05-.22 0-1.12-.23-2.21-.53-3.35-.65l-.15.49v.21c0 .07-.05.09-.05.13s-.07.14 0 .23 0 .28-.13.35a.1.1 0 01-.12 0v-.32c0-.09-.05-.13 0-.22s0-.14 0-.23.1-.42.05-.64c-.42-.08-.9-.13-1.33-.19s-.55 0-.82 0c-1.19 0-2.21-.06-3.32 0-.06 0 0 .1 0 .13v.65s-.08.08-.13.06 0-.13 0-.18-.05-.09 0-.14 0-.21-.07-.28 0-.18 0-.22c-.36 0-.81.05-1.15.1a1.13 1.13 0 00-.29 0 1.69 1.69 0 00-.37.07c-.39.08-.72.09-1.1.17a2.88 2.88 0 00-.39.06c-1.43.28-2.86.58-4.22.91.21.86.44 1.78.67 2.63v.14c-.3-.71-.55-1.36-.82-2.06.09.27.09.52.18.79-.05.05.05.12 0 .17s-.14 0-.18 0-.13-.32-.18-.5-.12-.47-.23-.61h-.1c-.05 0-.15-.06-.18.05v.05a.09.09 0 01-.05.12c.05.19.15.41.18.58s-.11.05-.14 0a6.14 6.14 0 00-.21-.67c0-.06-.09 0 0-.09l-.11-.46.81 2.77c0 .09.1.17 0 .23-.4-.85-.77-1.69-1.17-2.56v.13c.05.11 0 .08-.04.14zm19.17-.82c.1-.11.41-.11.47.07a.37.37 0 01-.06.42c-.09.06-.24 0-.35 0a.4.4 0 01-.15-.23.28.28 0 01.09-.26zm-.36 1.77a.51.51 0 01.19-.17c.13 0 .18 0 .28.08s.08.21.09.32-.09.15-.17.21a.32.32 0 01-.31 0c-.13-.12-.12-.32-.08-.44zm-3.53-1.53a1.06 1.06 0 011-.39l.29.05a.2.2 0 01.14 0c.46.15 1 .33 1.17.89a.5.5 0 01-.28.48 2.06 2.06 0 01-2.16-.45c-.1-.12-.26-.36-.16-.58zm-1.07 1a.32.32 0 01-.28.15.29.29 0 01-.26-.18.36.36 0 01.09-.4.33.33 0 01.41 0 .33.33 0 01.04.38zm-.51-2.07c.05-.09.15-.1.24-.12a.41.41 0 01.24.1c0 .1.14.27 0 .39a.35.35 0 01-.23.14.43.43 0 01-.28-.12.35.35 0 01.02-.44zm-4.41 1.12c.61-.35 1.08-.78 1.68-1.15h.09c.57.44 1.17.8 1.78 1.22-.64.45-1.19.83-1.82 1.26-.09 0-.1-.08-.18-.09-.56-.37-1.09-.81-1.67-1.14-.04-.09.06-.1.11-.15zm-.24-1.67zm-.82 2.69a.34.34 0 01-.35 0c-.09-.08-.21-.18-.17-.31a.31.31 0 01.18-.27.33.33 0 01.37.09c.06.14.14.32-.04.45zm-.4-2.22a.32.32 0 01.46.1.35.35 0 010 .36.32.32 0 01-.37.09.33.33 0 01-.19-.29.47.47 0 01.09-.3zm-2.49.86c.12-.09.25 0 .39-.08a1.51 1.51 0 01.81.21.52.52 0 01.17.47 1.52 1.52 0 01-1 .82l-.24.06a1.58 1.58 0 01-1.18-.13.48.48 0 01-.21-.49 1.56 1.56 0 011.25-.91zm-2.19 1.85c.08.09 0 .23 0 .33a.39.39 0 01-.33.13c-.08-.06-.22-.1-.23-.24a.34.34 0 01.1-.31.31.31 0 01.45.04zm-.87-1.45a.35.35 0 01.15-.37.36.36 0 01.42.13.4.4 0 010 .38c-.08.08-.23.05-.33.07a.34.34 0 01-.25-.26zM33.9 22.5a3.67 3.67 0 01-.55 0 2 2 0 01-1.95-1.23 2.63 2.63 0 01-.86.37 2.54 2.54 0 01-1.27 0 2 2 0 01-1.35-1.35 2.86 2.86 0 01-1.37.54 2.2 2.2 0 01-2.17-1.14 2.56 2.56 0 01-1.31.83 2.32 2.32 0 01-2.48-.8 2.24 2.24 0 01-2 .87.66.66 0 00-.27 0 4 4 0 01-.82-.32 6.58 6.58 0 01-.71-.56 2 2 0 01-1.06 1 2.66 2.66 0 01-2.46-.37 1.59 1.59 0 01-.61.95 2.54 2.54 0 01-2.49.24c-.15 0-.22-.19-.38-.21a2 2 0 01-1.56 1.18c-.11 0-.22 0-.26.11-.31-.08-.39.13-.6.24.11.18.18.44.35.55 0 .09.05.16.09.23 0 .08.07.05.09.1s.12 0 .17.05a28.8 28.8 0 015.3-1.14c.11 0 .29 0 .4-.07 1.26-.13 2.42-.28 3.71-.4.72-.08 1.47-.11 2.22-.18.22-.06.5 0 .74-.05s.49 0 .68 0a1.11 1.11 0 01.5 0h.37a1.06 1.06 0 00.28 0h.08c.08 0 0 0 0 0a.38.38 0 00.24.06s0-.06.09 0 .18.12.23 0c0 .1.14 0 .2 0a.6.6 0 00.26 0h.09a3.09 3.09 0 00.62.1v-.05c0 .06.05 0 .12.06s.05.05.08 0 0 0 0-.05v.08c.08 0 .18.08.22 0v.06c.12-.06.23 0 .35 0h.14c.06 0 0 0 0 0a1.23 1.23 0 00.21 0c.23 0 .41.06.64 0a1.29 1.29 0 01.33 0h.45a1.12 1.12 0 00.3 0 4 4 0 01.9.15h.11c.18.23.41.05.64.19h.06a29 29 0 013.37.72c.29 0 .58.32.89.1a1.37 1.37 0 00.31-.22 6.22 6.22 0 00.46-.9s.25.22.24.26zm47.36 58.05c0 2.46 1 4.3 4 4.3h2.64v-8.37a6 6 0 00-2.43-.5c-2.47.02-4.21 1.82-4.21 4.57zM12.57 31.36c0-.05 0 0 .07 0s0-.09 0-.09z"/><path class="cls-1" d="M34.87 18.93a2.79 2.79 0 001.45-2.06 3.81 3.81 0 00-1.88-2.69.42.42 0 00-.33.23 11.43 11.43 0 01-1 3.9h-.05c-.76.15-1.59.37-2.37.55-.28.09-.6.14-.91.23a7 7 0 00-.64-.66 2.63 2.63 0 01-.15.72c.37.19.74.3.94.7-.05.05 0 .14-.06.18a.74.74 0 01-.53.07l-.37.06h-.33v.14a1.2 1.2 0 00.77.9 1.89 1.89 0 001.81-.59c.14 0 .06-.19.15-.27-.09-.08-.1-.2-.14-.34a.67.67 0 01.36-.6.72.72 0 01.65.1.63.63 0 01.22.56c0 .28-.28.41-.44.58a.93.93 0 00.12.61c.32.55 1 .55 1.55.6h.23a.8.8 0 00.53-.18.73.73 0 000-.37 1.2 1.2 0 01-.63-.84c0-.12.1-.17.2-.19a2.07 2.07 0 011.27.5 2.52 2.52 0 01.7-.69c-.36-.44-.78-.77-1.12-1.15zm-1.73 7.12a2.9 2.9 0 00-.31.78H33c.17-.24.29-.54.43-.79-.08 0-.2 0-.27-.05zm-4.59 5.39h.1c.09 0 .22 0 .28-.06s.1-.05.09-.13c-.18 0-.31.05-.48.05zm-12.22-.04v.3h.32c.17.27-.23.11-.25.2s-.18.14-.16.26a7.57 7.57 0 001.05.06c-.07-.27-.07-.59-.1-.86a4.17 4.17 0 00-.86.04z"/><path class="cls-1" d="M15.49 31.9v-.05s-.24-.1-.33 0c-.14-.07-.27.05-.41 0V32c.41 0 .78.13 1.27.13h.17c.08-.05 0-.18 0-.26a1.78 1.78 0 00-.7.03zm8.19-1.08c-.13-.05-.15.13-.23.19s-.08-.11-.05-.19h-.33c0 .19-.08.4-.1.58a1.56 1.56 0 01-.14.6c-.07-.39-.08-.82-.13-1.19h-.49c0 .1-.1.09-.17.08-.1.32-.13.71-.25 1 0-.37-.05-.67-.05-1.05-.15 0-.29 0-.43-.1s0-.13.08-.14a.64.64 0 00.34 0v-.67c-.25.05-.48 0-.72 0l-.32 2.18c-.1-.68-.16-1.46-.24-2.18h-.12s0 .08-.09 0S20 30 20 30v.63a.16.16 0 01.13.08c0 .08-.13.09-.19.11 0 .08 0 .18-.12.19s-.13-.08-.09-.15-.05 0-.07 0h-.09a4.18 4.18 0 010 .7c0 .16 0 .32-.05.44-.08-.36-.19-.74-.24-1.09a2.28 2.28 0 01-.26 0h-.41v.38c.17.08.36-.1.46.08s-.1.09-.18.09h-.26V32s0 .12-.08.09c0-.21-.06-.44-.1-.63h-.78c0 .31-.08.62-.11.9 1.26.09 2.77.08 4 .09h1a4 4 0 01.49 0H23a.46.46 0 00.06-.35c.06-.09.1-.22.23-.24s.08.09.08.13.19.3.05.46h.56v-.1zm2.09 1s-.14 0-.19-.09c.11-.09 0-.21 0-.33h-.49a2.1 2.1 0 00-.09.66s-.06.1 0 .13c.46-.08 1-.08 1.4-.13.15 0 0-.16.05-.24a4.75 4.75 0 00-.68 0z"/><path class="cls-1" d="M24.6 31.39h-.62a6.93 6.93 0 00-.06.88c.35 0 .72 0 1-.08-.05-.27 0-.5-.11-.77zm-11.6.29a5.67 5.67 0 001.29.26c.06.05.19 0 .25 0v-.14a8 8 0 00-1.08-.09c-.08.02-.27.02-.46-.03zm0-.2h.43v-.13l-.43-.02v.15zm-.53-.7c-.14.14.15 0 .17.09v-.09c-.07.04-.11 0-.17 0zm15.29.62v.09H28c.08-.05.13 0 .2-.05s0 0 0-.08a1.35 1.35 0 00-.44.04zm.78-1v.4a2.81 2.81 0 00.45 0c-.17-.18-.22-.39-.45-.4zm-1.09 1.31l-.85.09c0 .09-.05.17 0 .24.51-.05 1-.13 1.45-.21 0-.06.17 0 .14-.13h-.25c-.18.01-.35-.08-.49.01z"/><path d="M112.21 79.76c-2.31-1.34-3.19-2-3.19-2.63s.68-1.2 1.73-1.2a7.35 7.35 0 013.81 1.38v-2.59a8.19 8.19 0 00-3.87-1.08c-2.64 0-4.33 1.35-4.33 3.57 0 3.54 6.15 4.51 6.15 6.32 0 .94-.88 1.44-1.93 1.49a8.41 8.41 0 01-4.31-1.73v2.81a9.11 9.11 0 004.57 1.2c2.49 0 4.34-1.55 4.34-3.86-.01-1.34-.8-2.25-2.97-3.68zM1.56 87.05h2.77V78.1h7.51v-2.49H4.33v-5.33h7.51v-2.49H1.56v19.26zm29.02-13.41a6.84 6.84 0 100 13.67c4.22 0 7.12-2.81 7.12-7-.01-3.86-2.99-6.67-7.12-6.67zm0 11.33C28 85 26.3 83.12 26.3 80.34A4.17 4.17 0 0130.55 76 4.28 4.28 0 0135 80.37c0 2.84-1.7 4.63-4.45 4.63zm29.07-11.33a5.08 5.08 0 00-3.93 2h-.06V73.9h-2.59V87h2.61v-9.38c1.23-1.38 2.14-1.9 3.28-1.9 1.58 0 2.58 1.26 2.58 3.19V87h2.61v-8.06c-.02-3.6-2.01-5.3-4.5-5.3zm28.26.53a7.71 7.71 0 00-2.75-.53 6.3 6.3 0 00-6.56 6.53c0 4.22 2.45 6.83 6.4 6.83h5.53V67h-2.6zm0 10.69h-2.64c-3 0-4-1.84-4-4.3C81.26 77.8 83 76 85.48 76a6 6 0 012.43.5zm27.03-50.22A28 28 0 01100 39.48c-10.29 0-17.32-6.65-17.32-16.25 0-9.41 7.28-16.38 17.06-16.38 5 0 9.47 1.38 14.75 4.45V4.72c-5.83-2.45-10.28-3.52-14.67-3.52-13.61 0-23.47 9.54-23.47 22.59 0 9 7 21.33 23.09 21.33a31.37 31.37 0 0015.5-3.76zM17.87 4.6c.1 0 .11-.13.21-.08s.09-.06.09-.11.28-.17.39-.32a2.82 2.82 0 01.79-.44s.14 0 .13-.08.1-.05.1 0c.11-.12.3-.1.45-.17a.08.08 0 01.12 0c0 .28.06.6-.1.82 0 .13-.08.18-.12.26v.13c-.13 0 0 .17-.11.23a1.94 1.94 0 00-1.24 1.59 1.95 1.95 0 003 1.87 2 2 0 00.9-1.73 2 2 0 00-1.08-1.64.21.21 0 01-.14-.24.32.32 0 01-.09-.27C21.05 4.23 21 4 20.91 4v-.67c.14 0 .5-.05.59.09.06 0 .09 0 .09.07s.23.11.37.15.2.1.23.18 0 0 0 .05c0 .1.1 0 .14.13s.32.23.44.29a1.43 1.43 0 01.28.24s.06.06 0 .09.05 0 .08.05.13 0 .14-.06V1.15l-.27.34c-.42.26-.69.77-1.2.87-.1.18-.35.06-.42.22-.06 0-.09.06-.14 0a.83.83 0 01-.31 0c.05-.11-.06-.05-.05-.15.08-.08 0-.19.11-.26s.06-.07 0-.13 0-.11.09-.1v-.1c0-.06.06-.15.11-.22s.06-.1 0-.14.08-.17.18-.22a.79.79 0 01.31-.41l.23-.29c0-.13.15-.18.23-.26s.22-.17.13-.29C21.1 0 20 0 18.85 0l.72.85c0 .13.14.08.16.18h-.05c.05 0 0 .11.12.16s.17.19.13.32a.54.54 0 00.1.2 5.85 5.85 0 00.18.74s-.05.05-.08 0 0 .05 0 .08a.8.8 0 01-.4-.1c0-.11-.11.08-.16-.05-.07.07-.07-.11-.17-.08s-.19 0-.26-.1c-.24-.19-.43-.36-.69-.58s-.42-.42-.66-.58v3.6a.1.1 0 00.08-.04zm-1.56 3.91a.76.76 0 00.76-.36.86.86 0 000-.81.81.81 0 00-.87-.28.73.73 0 00-.46.6.67.67 0 000 .36.75.75 0 00.57.49zm8.05-.09a.78.78 0 00.78 0 .77.77 0 00-.09-1.32.18.18 0 01-.13 0c-.09-.06-.23 0-.33 0a.77.77 0 00-.18 1.37zm-10.81.8a.83.83 0 00.57-.35.82.82 0 000-.73.73.73 0 00-1.38.27.86.86 0 00.17.55.79.79 0 00.64.26zm13.9-.03a.9.9 0 00.66-.09.78.78 0 00.3-.68.8.8 0 00-.5-.65h-.24a1.64 1.64 0 00-.36.1.81.81 0 00-.37.63.76.76 0 00.51.69zM19 8.65a3.06 3.06 0 00-.69 1.6 11.8 11.8 0 00.08 4.49 3.62 3.62 0 00.7 1.51c.08 0 .14.17.25.08s0-.13 0-.19c-.17 0-.12-.24-.23-.35a9.75 9.75 0 01-.33-1.85 14.6 14.6 0 01-.08-2 11.41 11.41 0 01.41-3c-.01-.08.21-.49-.11-.29zm3.6.84c-.14-.33-.27-.74-.64-.9a9.61 9.61 0 01.49 2.49A14.1 14.1 0 0122 16h-.07s.07 0 0 .06-.09.13-.14.05c0 .08-.08.13-.05.19s.14.08.17.09 0-.11.07-.05 0-.08 0-.12.08-.05.13-.05a3.72 3.72 0 00.4-.65 10.71 10.71 0 00.09-6.03zm-11.6.78a.91.91 0 00.58-.33.84.84 0 00.05-.68.71.71 0 00-.58-.44.77.77 0 00-.71.27.76.76 0 000 .81.79.79 0 00.66.37zm19-.03a.8.8 0 00.7-.14.74.74 0 00-.29-1.27.87.87 0 00-.81.28.82.82 0 00-.08.69c.12.2.22.39.48.44zm-8.92-.86l-.23-.18a.73.73 0 00-.7.11.63.63 0 00-.15.69.64.64 0 001.18.11.69.69 0 00-.1-.73zM7.54 11.15a.75.75 0 00.56-.37.8.8 0 00-.05-.78.76.76 0 00-1.21 0 .85.85 0 00-.06.77.78.78 0 00.76.38zm26.09.02a.79.79 0 00.59-.21.81.81 0 00.14-.85c-.05-.2-.31-.32-.46-.4a.79.79 0 00-.72.17.77.77 0 00-.18.81.78.78 0 00.63.48zM4.88 12.36a.76.76 0 00.81-.17.8.8 0 00.17-.78.9.9 0 00-.34-.41.7.7 0 00-.52 0 .66.66 0 00-.41.21.79.79 0 00-.13.76.77.77 0 00.42.39zm30.71-.05a.85.85 0 00.77 0 .8.8 0 00.36-.5.83.83 0 00-.16-.61.77.77 0 00-.86-.2.75.75 0 00-.11 1.32zM20.52 11c0 .07-.11 0-.13.05s-.15.08-.23.12a.63.63 0 00-.19.71.91.91 0 00.33.36.7.7 0 00.7-.14.69.69 0 00.17-.71.65.65 0 00-.65-.39zM9.93 12.47a.9.9 0 00.58-.23.8.8 0 00.14-.82.78.78 0 00-.36-.37.82.82 0 00-.94.23.9.9 0 00-.08.71.79.79 0 00.66.48zm20.56-.98a.81.81 0 00.14.74.85.85 0 00.6.24.75.75 0 00.65-.51.87.87 0 000-.54A.77.77 0 0031 11a.83.83 0 00-.51.49zM3.28 14a.68.68 0 00.6-.38.77.77 0 000-.74.76.76 0 00-.6-.35.79.79 0 00-.61.32.76.76 0 00-.08.74.77.77 0 00.69.41zm34.8 0a.89.89 0 00.54-.42.91.91 0 000-.61.77.77 0 00-.69-.42.78.78 0 00-.69.56.8.8 0 00.27.77.86.86 0 00.57.12zm-17.54.08a.63.63 0 00.61-.33.81.81 0 000-.55.79.79 0 00-.37-.34.67.67 0 00-.68.14.66.66 0 00-.15.68.63.63 0 00.59.4zm-11.86.55a.85.85 0 00.6.33.81.81 0 00.61-.31.77.77 0 00.09-.71.76.76 0 00-.63-.47.77.77 0 00-.66.32.82.82 0 00-.01.84zm23.37.32a.79.79 0 00.54-.58.86.86 0 00-.14-.61.81.81 0 00-.7-.27.76.76 0 00-.6.55.87.87 0 00.11.6.8.8 0 00.79.31zm-11.54.95a.63.63 0 00.64-.34.64.64 0 00-1-.76.65.65 0 00-.15.69.66.66 0 00.51.41zm-18.61 1a.74.74 0 00.78-.32.82.82 0 000-.81.8.8 0 00-.4-.32.83.83 0 00-.81.23.75.75 0 00-.13.73.79.79 0 00.56.49zm36.46-.69a.73.73 0 00.38.63.81.81 0 00.78-.05.82.82 0 00.26-.88.9.9 0 00-.24-.34.84.84 0 00-.73-.09.8.8 0 00-.45.73zm-27.62-.29a.93.93 0 01-.15-.07.88.88 0 00-.49.05.73.73 0 00-.45.59.86.86 0 00.29.69.75.75 0 00.77.06.69.69 0 00.41-.63.73.73 0 00-.38-.69zm19.73-.01a.73.73 0 00-.44.7.75.75 0 00.91.71.71.71 0 00.55-.59.84.84 0 00-.13-.58.74.74 0 00-.89-.24zM2.13 18.23a.75.75 0 00-.43.6.91.91 0 00.22.6.86.86 0 00.81.15.83.83 0 00.44-.48.74.74 0 00-1-.88zm36.65-.05a.74.74 0 00-.72.37.83.83 0 000 .74.72.72 0 00.69.35.68.68 0 00.55-.32.73.73 0 000-.82.74.74 0 00-.52-.32zm-20.14 5.69v.05s.01-.05 0-.05zm-1.15 1.03a.32.32 0 00.37-.09.35.35 0 000-.36.32.32 0 00-.46-.1.47.47 0 00-.13.26.33.33 0 00.22.29zm6.09.02a.35.35 0 00.23-.14c.11-.12 0-.28 0-.39a.41.41 0 00-.24-.1c-.09 0-.19 0-.24.12a.35.35 0 000 .39.43.43 0 00.25.12zm-2.97 2c.63-.42 1.18-.81 1.82-1.26-.61-.42-1.21-.78-1.78-1.22h-.09c-.6.37-1.06.81-1.68 1.15-.05.05-.15.07-.12.15.58.33 1.1.77 1.67 1.14.08-.04.09.12.18.04zm-5.56-.24l.24-.06a1.52 1.52 0 001-.82.52.52 0 00-.17-.47 1.51 1.51 0 00-.81-.21c-.14.05-.27 0-.39.08a1.56 1.56 0 00-1.27.86.48.48 0 00.21.49 1.58 1.58 0 001.19.13zm12.17-.08a.5.5 0 00.28-.48c-.13-.55-.7-.73-1.17-.89a.2.2 0 00-.14 0l-.29-.05a1.06 1.06 0 00-1 .39c-.1.22.05.46.18.62a2.06 2.06 0 002.14.41zm-15.16-.79c.1 0 .26 0 .33-.07a.4.4 0 000-.38.36.36 0 00-.42-.13.35.35 0 00-.15.37.34.34 0 00.24.21zm17.12-.03a.37.37 0 00.06-.42c-.06-.18-.37-.18-.47-.07a.28.28 0 00-.09.28.4.4 0 00.15.23c.11.01.26.05.35-.02zM17.49 26a.31.31 0 00-.18.27c0 .13.08.23.17.31a.34.34 0 00.35 0c.15-.13.1-.31 0-.45a.33.33 0 00-.34-.13zm5.87.06a.36.36 0 00-.09.4.29.29 0 00.26.18.32.32 0 00.28-.15.33.33 0 000-.38.33.33 0 00-.45-.05zm-11.19 1.21c0 .14.15.18.23.24a.39.39 0 00.33-.13c0-.1.09-.25 0-.33a.31.31 0 00-.48-.09.34.34 0 00-.08.31zm16.64.23c.08-.05.16-.1.17-.21s0-.24-.09-.32-.16-.1-.28-.08a.51.51 0 00-.19.17c0 .13 0 .32.09.4a.32.32 0 00.3.04zm.19 2.59a4.1 4.1 0 00-.55-.14c-.69-.18-1.32-.24-2-.37h-.05a1 1 0 00-.32 0c-.09-.06-.19 0-.28 0a1.57 1.57 0 01-.35 0 5 5 0 01-.63-.06 7.51 7.51 0 01-.76-.05c-.71 0-1.45-.08-2.15-.09h-1.09c-.09 0-.17-.08-.24 0h-1.06a18.64 18.64 0 00-2 .08.88.88 0 00-.32 0h-.76c-.36 0-.61.06-1 .09-.17 0-.33.05-.5 0s-.24 0-.36.08c-.19.09-.41 0-.6.12a5.68 5.68 0 00-.61.09 11.46 11.46 0 00-1.66.45c-.34.18-.88.28-1 .73a.54.54 0 00.14.4 6.26 6.26 0 002.57.92 23.71 23.71 0 002.74.36c1.12.12 2.22.17 3.38.19.45-.06.91.08 1.39 0h1c.27-.06.63 0 .91-.05.64-.05 1.28 0 1.9-.12a24.24 24.24 0 003.26-.45 4.25 4.25 0 00.5-.13 5.28 5.28 0 00.83-.2c.42-.19 1-.33 1.14-.82a.54.54 0 00-.13-.37 3.29 3.29 0 00-1.34-.66zm-1.35.59c.15 0 .33 0 .51-.08s0 .12 0 .18h-.51c-.04-.01-.02-.04-.02-.1zm.41.27h-.29.18zm-1.27-.24a1.86 1.86 0 00.46 0 .47.47 0 010 .18h-.52c-.07 0-.07-.18.04-.18zm.5.3a1.16 1.16 0 01-.31.06c0-.09.09 0 .13-.06s.08-.01.16-.01zm-.59 0h.11-.1zm0 .36h.69v.13c-.17 0-.3.05-.46 0h-.22s-.08-.06-.07-.1zm-.7-1.15h-.07zm-.17.53a3.91 3.91 0 00.55 0v.12a.13.13 0 000 .22h.05v.06l-.64.05zm-.1.65h.72v.15l-.45-.06c-.06 0-.08.07-.1.1h-.19zm-.52-1.14c.05-.06.16 0 .22 0h-.22s.01.01.01 0zm-.05.51h.42v.41c-.08.05-.22 0-.31.05s-.14 0-.18 0 .06-.31.08-.46zm-.7-.55s.22-.07.27 0v.18c-.09 0-.17.05-.28 0s0-.13 0-.23zm-.34-.09s.06 0 .06.05h.1c-.05 0 0 .1 0 .15a.68.68 0 01-.16.18c0-.12-.04-.27 0-.38zm-.07.67c.08 0 .28-.08.26.09a.07.07 0 00.11 0c0-.19.22-.05.31-.11s.07.3.1.45h-.82zm-.49-.8a2.54 2.54 0 01.07.55h-.09a2 2 0 01.02-.55zm-.33 0h.09c.01 0 0 .21 0 .27v.33h-.22c.05-.24.09-.43.13-.6zm-1 0c.08.09.13-.13.19 0 0-.06.14 0 .19 0 0 .21 0 .44.07.64a4.16 4.16 0 01-.6.05c.05-.27.11-.51.15-.69zm-1.13-.15H21zm-.82 0zm-.75.21h.11c.08.23-.06.46 0 .65h-.14a6.48 6.48 0 01.04-.71zm-.93 0A3.56 3.56 0 0119 30v.07l.13.6h-.59zm-.71 0h.1l.1.56h-.26a2.77 2.77 0 00.07-.62zm0 .78c.11 0 .37-.08.32.15a.68.68 0 000 .22c-.06 0-.16 0-.19-.05a.21.21 0 00-.15 0s0 .07-.06 0v-.1c.05-.06 0-.15.05-.25zm-.26-.84c.14.1 0 .32 0 .46v.09h-.09c.05-.2.07-.38.09-.55zm-.1.82h.13a1 1 0 000 .33c0-.06-.09 0-.17 0zm-.45-.73a1.1 1.1 0 010 .4h-.21c.13-.17-.05-.49.21-.41zm.1.87v.19c-.1 0-.19.08-.28 0s-.08 0-.12 0 0-.23 0-.36c.15.05.46-.15.4.16zm-.63-.78s.13 0 .08.09 0 .08 0 .13h-.18c.04-.09.01-.22.1-.23zm-.13.62h.22a1.68 1.68 0 000 .36.45.45 0 01-.24 0zm-.42-.51c0 .08-.15 0-.17 0s.17-.08.17 0zm-.36.46h.39l.05.37c-.16-.09-.28 0-.48-.06 0-.11-.04-.24.04-.3zm-.81 0v-.1a1.86 1.86 0 00.52 0c0 .1.18.32 0 .32a2.59 2.59 0 01-.53 0c-.07-.2.15-.14.21-.26s-.14.09-.2.09zm-.08.59h.72a2.28 2.28 0 00.06.28c.09-.05 0-.18 0-.27h.53v.3h-.14c-.22.07-.39 0-.64 0-.14 0-.4 0-.46-.09s-.05.07-.09 0zm-.75-.66a4.78 4.78 0 01.5.05v.09c0-.01-.14 0-.21 0s0 .09 0 .15a.15.15 0 01.16 0c0-.08.1 0 .14 0s.05.08 0 .12a5.62 5.62 0 01-.6-.06zm-.09.69h.67c-.05.09 0 .14 0 .22s-.22 0-.29 0h-.23s-.07 0-.05.05-.09-.07-.11 0a.13.13 0 010-.27zm-.91-.65a1.87 1.87 0 00.54-.05v.28c-.14.06-.34 0-.51 0zm-.37-.25a.18.18 0 01-.12.07.14.14 0 01.14-.07zm-.08.89v-.08.09c0 .02.06-.06.02-.01zm.07-.49c0-.05-.31 0-.17-.09s.1 0 .17 0l.02.09zm.39.46l.41.05v.13h-.43s.01-.12.01-.18zm1.59.68h-.25a5.67 5.67 0 01-1.35-.28c.17 0 .36 0 .51.1a8 8 0 011.08.09zm1.53.15h-.17c-.49 0-.86-.09-1.27-.12v-.13c.14.08.27 0 .41 0 .09-.13.23 0 .33 0v.05a1.78 1.78 0 01.68 0c.04.04.11.16.03.21zm.13 0c0-.12 0-.3.16-.26s.42.07.25-.2h-.32v-.3a4.17 4.17 0 01.88 0c0 .27 0 .59.1.86a7.57 7.57 0 01-1.06-.1zm7.58.07h-.56c.14-.16-.17-.31-.05-.46s0-.11-.08-.13-.17.15-.23.24a.46.46 0 01-.06.35h.05a4 4 0 00-.49 0h-1c-1.25 0-2.77 0-4-.09 0-.28.08-.59.11-.9h.31c.09.05.19-.07.27 0s.14 0 .2 0c0 .19.07.42.1.63.05 0 .07-.05.08-.09v-.54c.08 0 .19.14.26 0s.06 0 0 0 .17 0 .18-.09-.29 0-.46-.08v-.38h.41a2.28 2.28 0 00.26 0c0 .35.17.73.24 1.09.1-.12 0-.28.05-.44a4.18 4.18 0 000-.7s.07.05.09 0 .05.07.07 0 .05.11.09.15.08-.12.12-.19c.06 0 .15 0 .19-.11a.16.16 0 00-.13-.08v-.63h.35c.08.72.14 1.5.24 2.18l.5-1.96h.72v.67a.64.64 0 01-.34 0s-.13.08-.08.14.28.05.43.1c0 .39 0 .68.05 1.05.12-.33.14-.72.25-1 .06 0 .18 0 .17-.08h.49c.05.37.06.81.13 1.19a1.56 1.56 0 00.14-.6c0-.18.08-.39.1-.58h.33c0 .08 0 .13.05.19s.1-.24.23-.19l.14 1.31c.11-.04.08.01.08.03zm.08 0a6.93 6.93 0 01.06-.88h.31c.09 0 .05-.05.08 0s.16 0 .23 0h.24c.07.27.05.5.11.77-.31.1-.68.1-1.03.13zm2.51-.19c-.43.05-.93.05-1.4.13-.06 0 0-.09 0-.13a2.1 2.1 0 01.09-.66h.49c0 .13.08.24 0 .33.05.08.15 0 .19.09a4.75 4.75 0 01.72 0c-.05.1.07.2-.09.25zm1.57-.22c-.47.08-.94.16-1.45.21v-.24l.85-.09c.14-.09.31 0 .46 0h.25c.08.1-.06.06-.11.12zm.14-.38c-.08.05-.13 0-.2.05h-.21v-.09a1.35 1.35 0 01.4 0c.08-.01.02.01.03.04zm.37-1c.23 0 .28.22.44.38a2.81 2.81 0 01-.45 0zm.41 1s-.19 0-.28.06h-.1v-.2c.17 0 .29 0 .48-.05.03.07-.02.08-.07.12z"/><path d="M40.91 16.24l-.51.32v.06a5.71 5.71 0 010 1.94 2.53 2.53 0 01-1.88 2c-.45.13-.76-.14-1.05-.41s-.89-.78-1.28-1.18c.35-.27.55-.63.86-.91s.26-.72.27-1.13a3.94 3.94 0 00-2.9-3.42c-.09 0-.15-.17-.23-.13 0-.13-.1 0-.14-.06a6.35 6.35 0 00-.23-.92 3.11 3.11 0 00-1.35-1.68c.18.54.59 1 .78 1.53.72 1.9-.09 4-1 5.54-.77.16-1.53.28-2.29.42-.36-.41-.67-.89-1-1.3.28-.79.6-1.64.83-2.46a3.63 3.63 0 00-.6-2.89 3.3 3.3 0 00-1.85-1.73 5.45 5.45 0 00-1.21-.38l-.36-.07h-.5a7.06 7.06 0 00-1.65-.05 2.25 2.25 0 00-.4-.58 4.07 4.07 0 00-.18-.41h-.14a.18.18 0 00-.15-.08s-.07.14 0 .17 0 .14.11.13a10.61 10.61 0 01.68 3c0 .8.08 1.76 0 2.53A11.06 11.06 0 0123 17c-.1 0-.09.11-.14.14s-.13.19-.18.26-.05.09-.05.13 0 .12.09.09.14-.18.26-.2 0-.09.07-.14a2.6 2.6 0 00.87-1.38 10.81 10.81 0 000-5.86c.28.08.51 0 .81.08h.14A5.24 5.24 0 0129 12.67c.63 1.33-.06 2.85-.81 3.87a1.6 1.6 0 00-.28.37c.26.34.59.69.89 1-.3.19-.41.56-.59.87-.12-.05-.32-.09-.45-.13s-.31-.08-.48 0-.31 0-.32.2c.1.42.62.44.7.86l-.27.23a1.3 1.3 0 01-.64.19c-.13-.06-.29 0-.41-.05a.89.89 0 01-.37 0c-.19 0-.31-.09-.47-.13a1 1 0 01-.51-.78c.15 0 .24-.17.37-.24a.82.82 0 00.13-.44.71.71 0 00-.27-.59.73.73 0 00-.87 0 .78.78 0 00-.32.61c0 .18.12.32.17.48-.14.28-.42.43-.6.65s-.29.27-.49.26a3 3 0 01-1.27 0 .59.59 0 00-.23-.1 1 1 0 01-.61-.9c.11-.05.2-.16.33-.22s.49 0 .68-.21a.26.26 0 00.11-.27c-.27-.36-.77-.28-1.14-.34a1.85 1.85 0 00-.3-1.12.25.25 0 00-.28 0 1.83 1.83 0 00-.24.83c-.05.08 0 .19 0 .28a3.75 3.75 0 00-.74.08c-.12.1-.44.1-.39.36a1 1 0 00.76.35.3.3 0 00.19.09c0 .08.12 0 .1.12s0 .05.09 0a1.09 1.09 0 01-.26.61 2.16 2.16 0 01-1.86.3 2.9 2.9 0 01-1-.88c-.06-.05 0-.14.05-.19a.74.74 0 00-.09-.8.79.79 0 00-.69-.25A.75.75 0 0016 19c.09 0 .14.05.22.09a.92.92 0 01-.19.49 1.29 1.29 0 01-.36.3 1.8 1.8 0 01-.85.17 1.43 1.43 0 01-1-.15 1.42 1.42 0 01-.28-.28c.09-.05.13-.18.22-.22.17-.21.51-.33.49-.64-.08-.15-.27-.15-.41-.15l-.45.08c-.14 0-.26.11-.4.07a1.75 1.75 0 00-.56-.83c.29-.35.61-.7.9-1A5.06 5.06 0 0112 13.55a4.08 4.08 0 012.79-3.05 6.92 6.92 0 012.41-.5v.06a11 11 0 000 5.78 2.54 2.54 0 00.93 1.42c.1 0 .05.26.18.13s0-.15-.08-.18a8.94 8.94 0 01-.67-2.92c0-.54-.05-1.09-.05-1.62a3.43 3.43 0 010-.51 14.36 14.36 0 01.13-1.64 7.4 7.4 0 01.49-1.88c0-.18.24-.26.26-.45l-.06-.09c-.09 0-.13.1-.23.09 0 .18-.15.23-.23.4a5.83 5.83 0 00-.47.67 8.08 8.08 0 00-2.17.14c-.27 0-.5.12-.73.15a6.63 6.63 0 00-1.62.76 3.78 3.78 0 00-1 1.12 5.37 5.37 0 00-.79 2.28 13.81 13.81 0 001 3.16V17c-.31.45-.64.81-.95 1.23-.28.07-.53-.1-.83-.1-.45-.09-1-.15-1.44-.23a7.16 7.16 0 01-1.24-4.6 7.26 7.26 0 011-2.43 3.53 3.53 0 00-1.53 2.5.37.37 0 01-.28.06.15.15 0 01-.1 0l-.19.1s-.09 0-.08.05a4.42 4.42 0 00-2.25 2 3.53 3.53 0 00-.27 2.18l.6.73c.17.14.28.28.45.45-.23.26-.53.49-.78.73a3.94 3.94 0 01-1.2.96A3.4 3.4 0 011.52 20a2.29 2.29 0 01-.73-1.18 5.72 5.72 0 010-2.24l-.49-.35H.19A12.66 12.66 0 000 18.58c.05.56.08 1.28.58 1.64.09.06.12.19.23.23a1.8 1.8 0 00.37.32l.13.17c.07 0 .07.14.16.09s.22.08.23.18c.22.11.4.28.63.4 0 .05.14.06.15.11s.1.07.15.08.13 0 .19 0 .19-.1.32-.12a7.27 7.27 0 001.24-1c.05 0 0 .08 0 .09.05.08.18.14.14.24v-.05c.08.09.09.16.17.22s.17.11.27.17.15.13.18.23 0 0 0 .05a1.35 1.35 0 01.44.45c.19.1.24.32.38.46.17 0 .19.17.28.22a3.5 3.5 0 01.48.68v.12c.1.24.26.44.19.73l-.21.18a1.11 1.11 0 00-.35 1.18.71.71 0 00.44.31c.12 0 .16.18.23.26.05 0 0 0 0 .06.05 0 .05 0 .05.08s.17.14.21.23a.08.08 0 01-.05 0c.16 0 .09.2.24.19a1.14 1.14 0 01.24.38 11 11 0 01.74 1.13v.15c.05 0 0 .09 0 .09a1.07 1.07 0 01.17.26v.1c0 .01.08.14 0 .18v.19h-.05v.1s-.13.1-.14.19a2 2 0 00-1.16 1.48 1.7 1.7 0 00.94 1.36A12.65 12.65 0 0012.77 34c1 .23 1.95.33 3 .47l.84.11c1.58.1 3.13.19 4.86.15h.79l1.56-.09c.4 0 .73-.09 1.15-.1.13 0 .21-.08.32 0s.32 0 .41-.08l.87-.1a19.87 19.87 0 005.2-1.35c.71-.36 1.54-.73 1.78-1.6s-.74-1.5-1.37-1.85a4.8 4.8 0 01.21-1c0-.09.08-.09.11-.12.12-.11.18-.27.36-.34s.09-.17.15-.19.1-.18.14-.31.19-.32.27-.5.17-.21.24-.31 0-.06 0 0v-.08c.09-.09.15-.2.26-.22a2.14 2.14 0 00.14-.26v-.06a1.7 1.7 0 00.44-.19.65.65 0 00.22-.51 1.63 1.63 0 00-.72-1.3v-.09a8.28 8.28 0 01.6-1.08c.05-.1.18-.14.17-.26.14-.29.41-.42.53-.67.08 0 .08-.17.18-.17s.13-.21.24-.24v-.05a2.67 2.67 0 00.91-1 11.19 11.19 0 001.37 1.1c.78.09 1.28-.54 1.89-.9.39-.36.8-.54 1.07-1a8.06 8.06 0 00.05-3.5zM7.2 21.76c-.18-.05-.4-.08-.51-.24.15-.1.18-.3.34-.36-.07-.14.13-.21.19-.29s.27-.33.18-.54-.33-.11-.52-.13a2.5 2.5 0 00-.92.49 2.42 2.42 0 00-.74-.69c.37-.32.72-.7 1.08-1v-.08a2.44 2.44 0 01-1.4-2.37A3 3 0 015.77 15a5.17 5.17 0 01.81-.68h.16c.07.05.15 0 .19.12.06 0 .09.08.14 0 .07.28.05.72.13 1a15.39 15.39 0 00.91 2.83 2.15 2.15 0 00.32.08c.31.09.71.12 1.05.24.53.1 1.1.2 1.63.36v.09c.11.06.23 0 .33 0 .24-.23.44-.5.65-.69a2.42 2.42 0 00.11.54.92.92 0 01-.26.28v.08c-.21.18-.68.31-.54.69a.64.64 0 00.6.09c.13.11.2 0 .39.08h.13c.06 0 0-.08.07-.09A1.23 1.23 0 0112 21a1.8 1.8 0 01-1.89-.32c-.11-.14-.29-.21-.31-.42a.6.6 0 00-.55-1 .63.63 0 00-.52.41.7.7 0 00.09.58c.1.12.27.15.35.31a1.06 1.06 0 01-.36.86 2.43 2.43 0 01-1.32.35c-.08-.05-.17.02-.29-.01zm1 5.05c-.12-.26-.27-.49-.37-.72.26 0 .31.2.41.4.06 0 .08 0 .11-.09s0-.1 0-.15v.08c0-.1.17 0 .19-.17s-.06 0-.06-.06h.08l.36.73c-.27.03-.51-.03-.77-.02zm.22 3.69zm-.11.9s.05 0 .08.05a.06.06 0 01-.13-.05zm.13.33h-.05.06zm23.86-1.64l-.12-.09c-.09 0-.12-.06-.22 0s.05.1.08.13.21 0 .26.08.05 0 .08 0-.07.05 0 .12a.65.65 0 00.3.18c.09 0 .24.06.27.17 0-.09.05 0 .09 0s-.09.06-.09.12.13 0 .1.13a.85.85 0 000 .24c.1 0 0 .11 0 .17s0 0-.06 0-.12.12-.12.18a.44.44 0 01-.32.05c-.05 0-.23 0-.28.12s0 .12.13.12c.05 0 0 .09.1.05a8.17 8.17 0 01-2.82 1.13 12.38 12.38 0 01-1.26.28c-.41.06-.82.14-1.24.19-.92.15-1.95.25-2.85.33-.73.06-1.58.06-2.3.1h-3.35c-1.06 0-2-.1-3-.19h-.42c-.92 0-1.72-.27-2.55-.36a12.73 12.73 0 01-1.59-.4 12 12 0 01-1.75-.62 3.91 3.91 0 00-.69-.51.3.3 0 00-.11-.23c.13-.05 0-.14 0-.22a1.63 1.63 0 00-.41-.26c-.05-.1 0-.22 0-.33s.1-.08.17-.1.1 0 .14-.06l.31-.05v-.15c0-.01-.22 0-.29 0 .14-.07.2-.2.33-.29.05-.07.27-.05.18-.19a9.37 9.37 0 012.7-1 29.36 29.36 0 013.54-.6c.6-.05 1.18-.14 1.77-.16.92 0 2.08-.14 2.92-.12 1.1 0 2.35 0 3.42.09 1.35.07 2.45.17 3.71.34 0 .06.1 0 .13 0a17 17 0 015 1.41zm-22.64-4.2c.4.87.77 1.72 1.17 2.56.09-.06 0-.14 0-.23L10 25.45l.06.17c-.05.06.06 0 0 .09a6.14 6.14 0 01.21.67c0 .05.11 0 .14 0s-.13-.39-.18-.58a.09.09 0 00.05-.12v-.05c0-.12.14.08.18-.05s.05.07.1 0c.11.14.13.42.23.61s.14.32.18.5.14.16.18 0-.05-.11 0-.17c-.09-.27-.09-.52-.18-.79.27.7.52 1.36.82 2.06.05 0 0-.1 0-.14-.23-.85-.46-1.77-.67-2.63 1.36-.34 2.79-.63 4.22-.91a2.88 2.88 0 01.39-.06c.38-.08.72-.09 1.1-.17a1.69 1.69 0 01.37-.07 1.13 1.13 0 01.29 0c.35-.05.79-.09 1.15-.1-.06 0 0 .14 0 .22s0 .2.07.28 0 .09 0 .14v.18c0 .05.09 0 .13-.06v-.65s-.05-.12 0-.13c1.11-.06 2.13 0 3.32 0 .27 0 .51.05.82 0s.91.11 1.33.19c0 .22-.05.41-.05.64s-.08.15 0 .23 0 .13 0 .22v.32a.1.1 0 00.12 0c.1-.07.08-.27.13-.35s.05-.14 0-.23.1-.08.05-.13.09-.13 0-.21l.15-.49c1.14.13 2.23.42 3.35.65h.22l.26.06a1.74 1.74 0 00-.13.33h.11c.02 0 .14-.23.2-.39.27.09.64.15.91.22l.29.08c-.24.95-.47 1.82-.73 2.74 0 0 0 .07.05 0l1.06-2.68a1.11 1.11 0 00-.14.5c0 .17-.22.32-.06.45.17 0 .15-.24.22-.39a2.61 2.61 0 00.16-.45s.08 0 .05-.05l.54.14c-.33 1-.56 2-.9 3h.05c.47-.95.89-1.95 1.35-2.91.14 0 .27.11.4.1-.06.4-.23.81-.31 1.19a3.39 3.39 0 00-.61 0l.35.94c-.1.4-.23.78-.33 1.18l-.46-.17s0-.06.06-.06a.29.29 0 00.12-.28v-.17c0-.05 0 0 0 0s.06-.25.08-.39a.69.69 0 00-.23 0 .46.46 0 01-.13.44s-.05.06 0 .06v.14c.07 0 0 .08 0 .13a4.32 4.32 0 01-.58-.14c-.63-.19-1.33-.32-2-.46 0-.05-.09 0-.12 0-.52 0-1.15-.19-1.68-.26-.29 0-.65-.09-.93-.09s-.35 0-.46-.07a3.06 3.06 0 00-.59 0c-.09-.05-.24 0-.36-.05-.93-.06-1.91-.1-2.91-.09h-.08c-.52 0-1.12.05-1.68 0a4.63 4.63 0 01-.94 0c-.4 0-.79.08-1.23.09a2.31 2.31 0 01-.42 0c0-.1.07-.22 0-.28-.23 0 0 .37-.28.32s-.88.05-1.24.13a21.58 21.58 0 00-4.3.89c-.08-.21-.17-.4-.24-.62a.06.06 0 00-.08 0s-.09.1 0 .15h-.05c0 .05.09.14.06.19s0 0-.08 0-.08.18-.12.3-.14-.12-.26-.1v.06l-.27-1c.12-.29.24-.6.35-.9h-.63c-.06-.3-.15-.58-.23-.86a.2.2 0 00.11-.06c0-.08.07-.05.11-.08s.09.1.07.16.08.12.15.13.09 0 .09-.1zm22.17 3c-.07.09-.1.3-.24.3a1.45 1.45 0 00-.37-.18l.41-.86c.05.18.27.42.15.65-.01.02.01.1.05.09zm-21.41-.06v-.06s.02.05 0 .05zm-.31.12v-.01zm-.22 0a.1.1 0 00-.13-.05.14.14 0 00-.06.1c-.11-.05-.08-.3-.21-.28s0-.26-.09-.36l.11-.27zm22.81-2.12h-.46c.17-.33.29-.68.46-1a1.64 1.64 0 00.27.09c-.08.12-.05.28-.16.4a2.78 2.78 0 00-.11.51zm.26 0h-.13a2.9 2.9 0 01.31-.78V26c.07.06.19 0 .27.05-.15.24-.28.54-.41.78zm.61-1.61a1.31 1.31 0 01-.56-.17c-.63-.23-1.31-.41-2-.63-.08 0-.22-.06-.32-.08s-.44-.11-.65-.19l-.26-.07c-.67-.18-1.45-.33-2.14-.5-.51-.1-1-.22-1.44-.28a.31.31 0 00-.21 0 5.56 5.56 0 00-.82-.11 21.66 21.66 0 00-3.6-.32c-.08-.1-.17 0-.28 0H20.1a5.93 5.93 0 00-1.18 0 9.78 9.78 0 00-1.51.12c-.35 0-.76.14-1.09.13a1.83 1.83 0 01-.36.07l-1.28.24c-.87.13-1.76.37-2.61.54-1.15.32-2.36.62-3.45 1a2.84 2.84 0 01-1.17.27c-.05 0 0-.09 0-.1s-.06 0-.05-.05 0-.14.1-.2c.37-.23.83-.36 1.2-.56A24.68 24.68 0 0113.38 23c1.28-.16 2.51-.45 3.83-.51.06-.06.1 0 .18 0a26 26 0 012.6-.21 2.41 2.41 0 01.42 0h.15c.06 0 0 0 0 0h.09c.01 0 .15.07.2 0s.16 0 .23 0v-.05c1.07.08 2.18.17 3.23.27.24.09.47 0 .72.12.59 0 1.18.15 1.76.24s1.18.23 1.77.28c.89.21 1.82.42 2.69.68a15.29 15.29 0 012.21.85s-.17 0-.12.1.49.15.59.36a.35.35 0 00-.35.09zM34 22.5a6.22 6.22 0 01-.46.9 1.37 1.37 0 01-.31.22c-.31.22-.59-.1-.89-.1a29 29 0 00-3.34-.73c0-.06 0 0-.06 0-.23-.14-.46 0-.64-.19 0 .07-.1 0-.11 0a4 4 0 00-.9-.15 1.12 1.12 0 01-.3 0h-.45a1.29 1.29 0 00-.33 0c-.23 0-.41-.08-.64 0a1.23 1.23 0 01-.21 0s-.07.06-.14 0-.23-.09-.35 0v-.06c0 .1-.14 0-.22 0v-.08.05c0 .05-.05 0-.08 0-.06 0-.12 0-.12-.06v.05a3.09 3.09 0 01-.62-.1h-.09a.6.6 0 01-.26 0c-.06 0-.16.08-.2 0-.05.1-.16 0-.23 0s0 .05-.09 0a.38.38 0 01-.24-.06h-.08a1.06 1.06 0 01-.28 0h-.37a1.11 1.11 0 00-.5 0c-.19.07-.47 0-.68 0s-.53 0-.74.05c-.75.06-1.5.1-2.22.18-1.28.11-2.45.27-3.71.4-.1.05-.28 0-.4.07a28.8 28.8 0 00-5.3 1.14c-.05-.05-.11 0-.17-.05s-.09 0-.09-.1c0-.07-.1-.14-.09-.23-.17-.12-.23-.37-.35-.55.22-.11.3-.32.6-.24 0-.13.14-.11.26-.11a2 2 0 001.54-1.19c.17 0 .23.17.38.21a2.54 2.54 0 002.49-.24 1.59 1.59 0 00.61-.95 2.66 2.66 0 002.46.37 2 2 0 001.06-1 6.58 6.58 0 00.71.56 4 4 0 00.82.32.66.66 0 01.27 0 2.24 2.24 0 002-.87 2.32 2.32 0 002.48.8 2.56 2.56 0 001.31-.83 2.2 2.2 0 002.17 1.14 2.86 2.86 0 001.37-.54 2 2 0 001.35 1.35 2.54 2.54 0 001.27 0 2.63 2.63 0 00.86-.37 2 2 0 001.95 1.23 3.67 3.67 0 00.55 0h.1zm1.25-1.82a2.07 2.07 0 00-1.27-.5c-.1 0-.19.08-.2.19a1.2 1.2 0 00.63.84.73.73 0 010 .37.8.8 0 01-.53.18h-.23c-.58 0-1.23 0-1.55-.6a.93.93 0 01-.12-.61c.15-.17.44-.3.44-.58a.63.63 0 00-.22-.56.72.72 0 00-.65-.1.67.67 0 00-.36.6c0 .14.05.27.14.34-.09.08 0 .26-.15.27a1.89 1.89 0 01-1.81.59 1.2 1.2 0 01-.77-.9v-.11h.33l.37-.06a.74.74 0 00.53-.07c.09 0 0-.13.06-.18-.19-.41-.57-.51-.94-.7a2.63 2.63 0 00.15-.72 7 7 0 01.64.66c.31-.09.63-.14.91-.23.78-.18 1.61-.4 2.37-.55h.05a11.43 11.43 0 001-3.9.42.42 0 01.33-.23 3.81 3.81 0 011.88 2.69 2.79 2.79 0 01-1.45 2.06c.34.38.76.72 1.06 1.06a2.52 2.52 0 00-.66.75zm-24.86 8.15v-.05zm0 0v-.05zm-.28.11zm0 0zM8.37 30.5zm0 0z"/><path d="M8.26 31.4a.06.06 0 00.08.05s-.07-.01-.08-.05z"/><path d="M8.26 31.4a.06.06 0 00.08.05s-.07-.01-.08-.05zm.12.33l.02-.01-.07-.03.05.04z"/><path d="M8.38 31.73l.02-.01-.07-.03.05.04z"/></svg>