<svg width="115" height="87" viewBox="0 0 115 87" fill="none" xmlns="http://www.w3.org/2000/svg">
<g clip-path="url(#clip0_1_14)">
<path d="M112.21 79.76C109.9 78.42 109.02 77.76 109.02 77.13C109.02 76.5 109.7 75.93 110.75 75.93C112.124 76.0239 113.444 76.5021 114.56 77.31V74.72C113.38 74.0443 112.05 73.6731 110.69 73.64C108.05 73.64 106.36 74.99 106.36 77.21C106.36 80.75 112.51 81.72 112.51 83.53C112.51 84.47 111.63 84.97 110.58 85.02C109.009 84.8593 107.516 84.2598 106.27 83.29V86.1C107.661 86.895 109.238 87.3089 110.84 87.3C113.33 87.3 115.18 85.75 115.18 83.44C115.17 82.1 114.38 81.19 112.21 79.76ZM1.56001 87.05H4.33001V78.1H11.84V75.61H4.33001V70.28H11.84V67.79H1.56001V87.05ZM30.58 73.64C29.6604 73.6048 28.7432 73.7556 27.8833 74.0832C27.0233 74.4108 26.2383 74.9086 25.5753 75.5468C24.9122 76.185 24.3848 76.9504 24.0245 77.7972C23.6642 78.644 23.4785 79.5547 23.4785 80.475C23.4785 81.3953 23.6642 82.306 24.0245 83.1528C24.3848 83.9996 24.9122 84.765 25.5753 85.4032C26.2383 86.0413 27.0233 86.5392 27.8833 86.8668C28.7432 87.1944 29.6604 87.3452 30.58 87.31C34.8 87.31 37.7 84.5 37.7 80.31C37.69 76.45 34.71 73.64 30.58 73.64ZM30.58 84.97C28 85 26.3 83.12 26.3 80.34C26.2767 79.7714 26.37 79.2042 26.5742 78.673C26.7783 78.1419 27.089 77.6581 27.4871 77.2516C27.8853 76.845 28.3624 76.5243 28.8891 76.309C29.4159 76.0938 29.9811 75.9886 30.55 76C31.1339 75.9767 31.7163 76.0731 32.2615 76.2834C32.8066 76.4937 33.303 76.8134 33.7199 77.2228C34.1368 77.6323 34.4654 78.1227 34.6856 78.664C34.9058 79.2052 35.0128 79.7858 35 80.37C35 83.21 33.3 85 30.55 85L30.58 84.97ZM59.65 73.64C58.8868 73.6566 58.1371 73.8451 57.4567 74.1913C56.7763 74.5376 56.1827 75.0328 55.72 75.64H55.66V73.9H53.07V87H55.68V77.62C56.91 76.24 57.82 75.72 58.96 75.72C60.54 75.72 61.54 76.98 61.54 78.91V87H64.15V78.94C64.13 75.34 62.14 73.64 59.65 73.64ZM87.91 74.17C87.0334 73.8269 86.1014 73.6473 85.16 73.64C84.2914 73.6035 83.4245 73.7472 82.6141 74.0621C81.8037 74.3769 81.0672 74.8561 80.4511 75.4695C79.8349 76.0828 79.3523 76.8171 79.0338 77.6261C78.7152 78.435 78.5675 79.3012 78.6 80.17C78.6 84.39 81.05 87 85 87H90.53V67H87.93L87.91 74.17ZM87.91 84.86H85.27C82.27 84.86 81.27 83.02 81.27 80.56C81.26 77.8 83 76 85.48 76C86.316 75.9956 87.1437 76.1659 87.91 76.5V84.86ZM114.94 34.64C110.524 37.6455 105.34 39.3249 100 39.48C89.71 39.48 82.68 32.83 82.68 23.23C82.68 13.82 89.96 6.85 99.74 6.85C104.74 6.85 109.21 8.23 114.49 11.3V4.72C108.66 2.27 104.21 1.2 99.82 1.2C86.21 1.2 76.35 10.74 76.35 23.79C76.35 32.79 83.35 45.12 99.44 45.12C104.844 45.223 110.184 43.9278 114.94 41.36V34.64ZM17.87 4.6C17.97 4.6 17.98 4.47 18.08 4.52C18.18 4.57 18.17 4.46 18.17 4.41C18.17 4.36 18.45 4.24 18.56 4.09C18.798 3.90179 19.0647 3.75322 19.35 3.65C19.35 3.65 19.49 3.65 19.48 3.57C19.47 3.49 19.58 3.52 19.58 3.57C19.69 3.45 19.88 3.47 20.03 3.4C20.0375 3.39149 20.0468 3.38467 20.0571 3.38C20.0674 3.37533 20.0787 3.37292 20.09 3.37292C20.1014 3.37292 20.1126 3.37533 20.1229 3.38C20.1333 3.38467 20.1425 3.39149 20.15 3.4C20.15 3.68 20.21 4 20.05 4.22C20.05 4.35 19.97 4.4 19.93 4.48V4.61C19.8 4.61 19.93 4.78 19.82 4.84C19.4875 4.96593 19.1959 5.18084 18.9772 5.46125C18.7585 5.74166 18.6211 6.07678 18.58 6.43C18.5351 6.79856 18.5963 7.17229 18.7564 7.50726C18.9166 7.84223 19.1691 8.12452 19.4842 8.32092C19.7992 8.51733 20.1639 8.6197 20.5351 8.61599C20.9064 8.61228 21.2689 8.50266 21.58 8.3C21.8652 8.11241 22.0976 7.85495 22.2552 7.55212C22.4127 7.2493 22.4901 6.9112 22.48 6.57C22.4562 6.22684 22.3443 5.89561 22.1551 5.60833C21.966 5.32104 21.7059 5.08741 21.4 4.93C21.3514 4.91391 21.3104 4.88065 21.2846 4.83646C21.2589 4.79227 21.2501 4.74019 21.26 4.69C21.2252 4.65499 21.199 4.6124 21.1833 4.56556C21.1677 4.51872 21.1632 4.4689 21.17 4.42C21.05 4.23 21 4 20.91 4V3.33C21.05 3.33 21.41 3.28 21.5 3.42C21.56 3.42 21.59 3.42 21.59 3.49C21.59 3.56 21.82 3.6 21.96 3.64C22.1 3.68 22.16 3.74 22.19 3.82C22.22 3.9 22.19 3.82 22.19 3.87C22.19 3.97 22.29 3.87 22.33 4C22.37 4.13 22.65 4.23 22.77 4.29C22.8733 4.35758 22.9674 4.43825 23.05 4.53C23.05 4.53 23.11 4.59 23.05 4.62C22.99 4.65 23.1 4.62 23.13 4.67C23.16 4.72 23.26 4.67 23.27 4.61V1.15L23 1.49C22.58 1.75 22.31 2.26 21.8 2.36C21.7 2.54 21.45 2.42 21.38 2.58C21.32 2.58 21.29 2.64 21.24 2.58C21.1376 2.59947 21.0324 2.59947 20.93 2.58C20.98 2.47 20.87 2.53 20.88 2.43C20.96 2.35 20.88 2.24 20.99 2.17C21.1 2.1 21.05 2.1 20.99 2.04C20.93 1.98 20.99 1.93 21.08 1.94V1.84C21.08 1.78 21.14 1.69 21.19 1.62C21.24 1.55 21.25 1.52 21.19 1.48C21.13 1.44 21.27 1.31 21.37 1.26C21.4248 1.0926 21.5339 0.94829 21.68 0.85L21.91 0.56C21.91 0.43 22.06 0.38 22.14 0.3C22.22 0.22 22.36 0.13 22.27 0.01C21.1 0 20 0 18.85 0L19.57 0.85C19.57 0.98 19.71 0.93 19.73 1.03H19.68C19.73 1.03 19.68 1.14 19.8 1.19C19.92 1.24 19.97 1.38 19.93 1.51C19.949 1.58291 19.9831 1.65104 20.03 1.71C20.0739 1.96031 20.134 2.2075 20.21 2.45C20.21 2.45 20.16 2.5 20.13 2.45C20.1 2.4 20.13 2.5 20.13 2.53C19.9902 2.53219 19.8523 2.49771 19.73 2.43C19.73 2.32 19.62 2.51 19.57 2.38C19.5 2.45 19.5 2.27 19.4 2.3C19.3 2.33 19.21 2.3 19.14 2.2C18.9 2.01 18.71 1.84 18.45 1.62C18.19 1.4 18.03 1.2 17.79 1.04V4.64C17.8055 4.64 17.8209 4.63639 17.8347 4.62944C17.8486 4.6225 17.8607 4.61242 17.87 4.6ZM16.31 8.51C16.4581 8.53145 16.6092 8.50873 16.7443 8.4447C16.8795 8.38066 16.9928 8.27814 17.07 8.15C17.1365 8.02537 17.1713 7.88627 17.1713 7.745C17.1713 7.60373 17.1365 7.46463 17.07 7.34C16.97 7.21118 16.8335 7.11553 16.6783 7.06558C16.5231 7.01562 16.3564 7.01368 16.2 7.06C16.0759 7.10849 15.9674 7.19004 15.8863 7.29581C15.8052 7.40158 15.7546 7.52753 15.74 7.66C15.7072 7.77775 15.7072 7.90225 15.74 8.02C15.7835 8.14461 15.8591 8.25553 15.9592 8.34156C16.0593 8.4276 16.1803 8.4857 16.31 8.51ZM24.36 8.42C24.4786 8.48846 24.6131 8.5245 24.75 8.5245C24.8869 8.5245 25.0214 8.48846 25.14 8.42C25.2497 8.3441 25.3378 8.24101 25.3957 8.12083C25.4535 8.00065 25.4792 7.8675 25.4701 7.73443C25.461 7.60135 25.4175 7.47291 25.3439 7.3617C25.2703 7.25048 25.169 7.16031 25.05 7.1C25.0082 7.11619 24.9618 7.11619 24.92 7.1C24.83 7.04 24.69 7.1 24.59 7.1C24.4538 7.14615 24.3332 7.22953 24.2419 7.3407C24.1507 7.45187 24.0924 7.58637 24.0736 7.72898C24.0549 7.87159 24.0765 8.01659 24.1359 8.14756C24.1954 8.27853 24.2903 8.39023 24.41 8.47L24.36 8.42ZM13.55 9.22C13.6641 9.20439 13.7737 9.16522 13.8718 9.10496C13.97 9.0447 14.0545 8.96469 14.12 8.87C14.1764 8.75659 14.2057 8.63165 14.2057 8.505C14.2057 8.37835 14.1764 8.25341 14.12 8.14C14.0485 7.99759 13.9323 7.88252 13.7892 7.81234C13.6461 7.74216 13.484 7.72073 13.3276 7.75133C13.1712 7.78194 13.0291 7.86288 12.923 7.98181C12.8169 8.10074 12.7526 8.25113 12.74 8.41C12.7318 8.60742 12.7918 8.80164 12.91 8.96C12.99 9.04898 13.0892 9.11862 13.2001 9.16366C13.311 9.2087 13.4306 9.22797 13.55 9.22ZM27.45 9.19C27.6734 9.24551 27.9096 9.21331 28.11 9.1C28.2126 9.02056 28.2938 8.91677 28.3462 8.79803C28.3986 8.67929 28.4205 8.54936 28.41 8.42C28.3931 8.27662 28.3377 8.1405 28.2496 8.02606C28.1616 7.91163 28.0443 7.82314 27.91 7.77H27.67C27.5466 7.78951 27.4258 7.82306 27.31 7.87C27.2033 7.93868 27.1142 8.03148 27.0499 8.14091C26.9857 8.25034 26.948 8.37335 26.94 8.5C26.9456 8.653 26.9973 8.80073 27.0883 8.92385C27.1793 9.04698 27.3054 9.13974 27.45 9.19ZM19 8.65C18.6198 9.1052 18.3801 9.66107 18.31 10.25C18.049 11.738 18.0762 13.2623 18.39 14.74C18.5029 15.2909 18.7426 15.8079 19.09 16.25C19.17 16.25 19.23 16.42 19.34 16.33C19.45 16.24 19.34 16.2 19.34 16.14C19.17 16.14 19.22 15.9 19.11 15.79C18.9407 15.1854 18.8302 14.5659 18.78 13.94C18.7076 13.2759 18.6809 12.6077 18.7 11.94C18.7028 10.9262 18.8407 9.91734 19.11 8.94C19.1 8.86 19.32 8.45 19 8.65ZM22.6 9.49C22.46 9.16 22.33 8.75 21.96 8.59C22.2327 9.39469 22.3975 10.232 22.45 11.08C22.5907 12.7337 22.4384 14.3993 22 16H21.93C21.93 16 22 16 21.93 16.06C21.86 16.12 21.84 16.19 21.79 16.11C21.79 16.19 21.71 16.24 21.74 16.3C21.77 16.36 21.88 16.38 21.91 16.39C21.94 16.4 21.91 16.28 21.98 16.34C22.05 16.4 21.98 16.26 21.98 16.22C21.98 16.18 22.06 16.17 22.11 16.17C22.2653 15.9676 22.3993 15.7498 22.51 15.52C23.117 13.5601 23.1482 11.4671 22.6 9.49ZM11 10.27C11.2282 10.2374 11.4354 10.1195 11.58 9.94C11.6354 9.83645 11.6685 9.72243 11.6771 9.6053C11.6857 9.48817 11.6697 9.37054 11.63 9.26C11.5821 9.14114 11.5028 9.03747 11.4007 8.96C11.2986 8.88254 11.1774 8.83416 11.05 8.82C10.9184 8.79978 10.7838 8.81403 10.6594 8.86136C10.535 8.90868 10.4249 8.98746 10.34 9.09C10.2636 9.21128 10.2231 9.35168 10.2231 9.495C10.2231 9.63832 10.2636 9.77872 10.34 9.9C10.4103 10.012 10.5075 10.1045 10.6228 10.1692C10.7381 10.2338 10.8678 10.2685 11 10.27ZM30 10.24C30.1196 10.2725 30.245 10.2767 30.3665 10.2524C30.488 10.2281 30.6021 10.1759 30.7 10.1C30.8005 10.012 30.8753 9.89853 30.9165 9.77149C30.9577 9.64446 30.9638 9.50865 30.934 9.37845C30.9043 9.24825 30.8399 9.12853 30.7477 9.03197C30.6554 8.93541 30.5387 8.86562 30.41 8.83C30.2623 8.80279 30.1101 8.81428 29.9681 8.86334C29.8262 8.91241 29.6994 8.99738 29.6 9.11C29.537 9.21215 29.4972 9.32689 29.4833 9.44611C29.4695 9.56534 29.482 9.68614 29.52 9.8C29.64 10 29.74 10.19 30 10.24ZM21.08 9.38L20.85 9.2C20.7336 9.15739 20.6082 9.14513 20.4858 9.16437C20.3633 9.18362 20.2478 9.23373 20.15 9.31C20.059 9.39687 19.996 9.50903 19.9693 9.63201C19.9425 9.75499 19.9532 9.88316 20 10C20.0369 10.1217 20.1092 10.2296 20.2077 10.31C20.3062 10.3904 20.4265 10.4397 20.5531 10.4515C20.6797 10.4633 20.8069 10.4371 20.9186 10.3763C21.0302 10.3155 21.1213 10.2228 21.18 10.11C21.234 9.99131 21.2533 9.85974 21.2356 9.73053C21.2179 9.60133 21.164 9.47979 21.08 9.38ZM7.54001 11.15C7.65568 11.1361 7.76651 11.0954 7.86371 11.0311C7.96092 10.9669 8.04182 10.8809 8.10002 10.78C8.15909 10.6566 8.18551 10.52 8.17676 10.3835C8.168 10.2469 8.12436 10.1149 8.05001 10C7.97912 9.90675 7.88762 9.83114 7.78267 9.7791C7.67772 9.72705 7.56216 9.69997 7.44501 9.69997C7.32787 9.69997 7.21231 9.72705 7.10736 9.7791C7.00241 9.83114 6.91091 9.90675 6.84001 10C6.76992 10.1145 6.72794 10.244 6.71751 10.3778C6.70708 10.5116 6.7285 10.646 6.78001 10.77C6.8564 10.9 6.96884 11.0051 7.10373 11.0726C7.23861 11.14 7.39016 11.1669 7.54001 11.15ZM33.63 11.17C33.7375 11.1771 33.8453 11.1621 33.9467 11.126C34.0482 11.0898 34.1412 11.0334 34.22 10.96C34.3209 10.8458 34.3876 10.7055 34.4124 10.5552C34.4371 10.4048 34.419 10.2505 34.36 10.11C34.31 9.91 34.05 9.79 33.9 9.71C33.7752 9.67742 33.6444 9.67588 33.5189 9.70551C33.3934 9.73514 33.277 9.79505 33.18 9.88C33.0758 9.98374 33.0035 10.1151 32.9716 10.2587C32.9397 10.4022 32.9495 10.5519 33 10.69C33.0526 10.819 33.1388 10.9315 33.2496 11.0159C33.3603 11.1003 33.4917 11.1535 33.63 11.17ZM4.88001 12.36C5.01702 12.413 5.16643 12.4251 5.31019 12.3949C5.45394 12.3648 5.58587 12.2936 5.69001 12.19C5.78417 12.0863 5.84943 11.9596 5.87926 11.8227C5.90909 11.6858 5.90246 11.5435 5.86001 11.41C5.79064 11.2422 5.67212 11.0992 5.52001 11C5.35311 10.9332 5.16692 10.9332 5.00001 11C4.84256 11.0185 4.69702 11.093 4.59001 11.21C4.50522 11.315 4.44876 11.44 4.426 11.5731C4.40324 11.7061 4.41495 11.8428 4.46001 11.97C4.54461 12.1492 4.69505 12.2889 4.88001 12.36ZM35.59 12.31C35.7093 12.3706 35.8412 12.4022 35.975 12.4022C36.1088 12.4022 36.2407 12.3706 36.36 12.31C36.4501 12.2546 36.5283 12.1819 36.5901 12.096C36.6519 12.0102 36.696 11.913 36.72 11.81C36.749 11.5935 36.6915 11.3744 36.56 11.2C36.4545 11.0825 36.3154 11.0003 36.1615 10.9645C36.0077 10.9287 35.8466 10.9411 35.7 11C35.5749 11.0537 35.4668 11.1404 35.3872 11.2508C35.3077 11.3613 35.2597 11.4913 35.2483 11.6269C35.237 11.7626 35.2629 11.8988 35.3231 12.0209C35.3833 12.143 35.4755 12.2464 35.59 12.32V12.31ZM20.52 11C20.52 11.07 20.41 11 20.39 11.05C20.37 11.1 20.24 11.13 20.16 11.17C20.058 11.2536 19.9848 11.367 19.9507 11.4944C19.9167 11.6218 19.9234 11.7567 19.97 11.88C20.0452 12.0278 20.1593 12.1523 20.3 12.24C20.4185 12.2816 20.546 12.2906 20.6692 12.2659C20.7924 12.2413 20.9066 12.184 21 12.1C21.0919 12.0094 21.1566 11.8948 21.1866 11.7693C21.2167 11.6438 21.2109 11.5124 21.17 11.39C21.1161 11.2652 21.0244 11.1604 20.9078 11.0904C20.7911 11.0205 20.6555 10.9888 20.52 11ZM9.93002 12.47C10.1446 12.4649 10.3503 12.3834 10.51 12.24C10.6063 12.1293 10.6703 11.9943 10.695 11.8496C10.7197 11.705 10.7041 11.5564 10.65 11.42C10.5755 11.2594 10.4485 11.1289 10.29 11.05C10.1292 10.9837 9.95145 10.9702 9.78247 11.0115C9.61349 11.0529 9.46204 11.1469 9.35002 11.28C9.28892 11.3866 9.2503 11.5046 9.23654 11.6267C9.22278 11.7488 9.23417 11.8725 9.27002 11.99C9.32592 12.1225 9.41693 12.2372 9.53323 12.3218C9.64954 12.4064 9.78673 12.4576 9.93002 12.47ZM30.49 11.49C30.4517 11.6155 30.4444 11.7484 30.4688 11.8773C30.4932 12.0062 30.5485 12.1272 30.63 12.23C30.7906 12.3859 31.0062 12.4721 31.23 12.47C31.3764 12.458 31.516 12.4032 31.6316 12.3126C31.7471 12.2219 31.8335 12.0993 31.88 11.96C31.9373 11.7846 31.9373 11.5954 31.88 11.42C31.8043 11.2592 31.6754 11.1295 31.515 11.053C31.3546 10.9764 31.1726 10.9577 31 11C30.8842 11.0391 30.7784 11.1033 30.6902 11.188C30.602 11.2727 30.5337 11.3758 30.49 11.49ZM3.28001 14C3.40533 13.9981 3.52768 13.9616 3.63357 13.8946C3.73945 13.8275 3.82474 13.7325 3.88001 13.62C3.94216 13.5066 3.97474 13.3793 3.97474 13.25C3.97474 13.1207 3.94216 12.9934 3.88001 12.88C3.81502 12.7782 3.72669 12.6933 3.62234 12.6324C3.51799 12.5716 3.40064 12.5365 3.28001 12.53C3.16077 12.5338 3.04395 12.5646 2.9383 12.62C2.83265 12.6754 2.74093 12.7541 2.67001 12.85C2.59434 12.9561 2.54724 13.0799 2.53323 13.2095C2.51922 13.3391 2.53877 13.4701 2.59001 13.59C2.65621 13.7152 2.75564 13.8197 2.87737 13.892C2.9991 13.9643 3.13842 14.0017 3.28001 14ZM38.08 14C38.1933 13.9691 38.2993 13.916 38.392 13.844C38.4847 13.7719 38.5622 13.6822 38.62 13.58C38.6902 13.3827 38.6902 13.1673 38.62 12.97C38.5552 12.843 38.4563 12.7364 38.3345 12.6623C38.2127 12.5881 38.0726 12.5492 37.93 12.55C37.7717 12.562 37.6208 12.6221 37.4975 12.7221C37.3742 12.8222 37.2844 12.9575 37.24 13.11C37.2118 13.2508 37.222 13.3965 37.2695 13.532C37.317 13.6675 37.4001 13.7877 37.51 13.88C37.6803 13.9851 37.8818 14.0275 38.08 14ZM20.54 14.08C20.6628 14.0907 20.7861 14.0652 20.8945 14.0065C21.0029 13.9478 21.0918 13.8587 21.15 13.75C21.2142 13.5723 21.2142 13.3777 21.15 13.2C21.067 13.0494 20.9371 12.93 20.78 12.86C20.6647 12.819 20.5403 12.8104 20.4205 12.8351C20.3006 12.8597 20.1898 12.9168 20.1 13C20.0141 13.0881 19.9545 13.1985 19.928 13.3186C19.9015 13.4388 19.9091 13.5639 19.95 13.68C19.9965 13.7985 20.0777 13.9001 20.183 13.9715C20.2883 14.0429 20.4128 14.0807 20.54 14.08ZM8.68002 14.63C8.75167 14.7236 8.84202 14.8013 8.94531 14.8581C9.04861 14.9149 9.16259 14.9496 9.28001 14.96C9.39815 14.956 9.51398 14.9261 9.61936 14.8726C9.72474 14.819 9.81712 14.7431 9.89002 14.65C9.96137 14.5478 10.0068 14.4298 10.0225 14.3061C10.0382 14.1824 10.0236 14.0568 9.98001 13.94C9.92781 13.8117 9.84153 13.7001 9.73049 13.6172C9.61946 13.5344 9.48789 13.4835 9.35002 13.47C9.22207 13.4642 9.09471 13.4905 8.97946 13.5464C8.86422 13.6022 8.76473 13.686 8.69001 13.79C8.61276 13.9161 8.57104 14.0607 8.56928 14.2086C8.56752 14.3565 8.60578 14.5021 8.68002 14.63ZM32.05 14.95C32.1831 14.9094 32.3032 14.8345 32.398 14.7326C32.4928 14.6308 32.5591 14.5057 32.59 14.37C32.6216 14.1563 32.5716 13.9385 32.45 13.76C32.3638 13.6619 32.255 13.5861 32.1332 13.5391C32.0113 13.4921 31.8798 13.4752 31.75 13.49C31.6081 13.5154 31.4764 13.5805 31.3702 13.6779C31.2639 13.7753 31.1876 13.9009 31.15 14.04C31.1131 14.2467 31.1521 14.4598 31.26 14.64C31.3494 14.7606 31.4708 14.8536 31.6105 14.9084C31.7502 14.9632 31.9025 14.9776 32.05 14.95ZM20.51 15.9C20.6387 15.9161 20.7693 15.8921 20.8838 15.8312C20.9983 15.7704 21.0913 15.6757 21.15 15.56C21.2153 15.4268 21.2324 15.2751 21.1982 15.1307C21.164 14.9864 21.0808 14.8584 20.9627 14.7686C20.8446 14.6789 20.6989 14.6329 20.5507 14.6386C20.4025 14.6444 20.2608 14.7014 20.15 14.8C20.0612 14.8883 19.9998 15.0004 19.9732 15.1229C19.9465 15.2453 19.9559 15.3728 20 15.49C20.042 15.5968 20.1112 15.6908 20.2006 15.7627C20.2901 15.8346 20.3967 15.8819 20.51 15.9ZM1.90001 16.9C2.04715 16.9324 2.20066 16.9191 2.34004 16.8619C2.47942 16.8048 2.59803 16.7064 2.68001 16.58C2.75014 16.4565 2.78701 16.317 2.78701 16.175C2.78701 16.033 2.75014 15.8935 2.68001 15.77C2.58536 15.6224 2.44482 15.5099 2.28001 15.45C2.13676 15.4126 1.98611 15.4142 1.84368 15.4547C1.70126 15.4951 1.57224 15.5729 1.47001 15.68C1.38694 15.78 1.33128 15.8998 1.30849 16.0278C1.2857 16.1558 1.29656 16.2875 1.34001 16.41C1.38593 16.5314 1.46104 16.6396 1.55871 16.7251C1.65638 16.8105 1.7736 16.8706 1.90001 16.9ZM38.36 16.21C38.3619 16.3393 38.3981 16.4657 38.4648 16.5764C38.5316 16.6871 38.6266 16.778 38.74 16.84C38.8637 16.8981 39.0001 16.924 39.1364 16.9153C39.2728 16.9066 39.4048 16.8635 39.52 16.79C39.6462 16.686 39.7383 16.5466 39.7846 16.3898C39.831 16.233 39.8294 16.0659 39.78 15.91C39.7277 15.7795 39.6455 15.663 39.54 15.57C39.4331 15.5006 39.3119 15.4564 39.1854 15.4409C39.0589 15.4253 38.9306 15.4386 38.81 15.48C38.6735 15.5464 38.5586 15.6503 38.4789 15.7796C38.3993 15.9089 38.358 16.0582 38.36 16.21ZM10.74 15.92C10.688 15.9012 10.6378 15.8777 10.59 15.85C10.4253 15.8197 10.2553 15.837 10.1 15.9C9.97912 15.9491 9.8736 16.0298 9.79446 16.1336C9.71532 16.2373 9.66544 16.3604 9.65001 16.49C9.64323 16.6194 9.6658 16.7487 9.71601 16.8682C9.76623 16.9877 9.84281 17.0943 9.94001 17.18C10.0509 17.2589 10.1811 17.3062 10.3167 17.3167C10.4523 17.3273 10.5883 17.3008 10.71 17.24C10.8319 17.1859 10.9356 17.0975 11.0083 16.9857C11.0811 16.8739 11.1199 16.7434 11.12 16.61C11.1293 16.4707 11.0984 16.3316 11.0311 16.2093C10.9637 16.087 10.8627 15.9866 10.74 15.92ZM30.47 15.91C30.3345 15.9685 30.2199 16.0667 30.1414 16.1917C30.0628 16.3167 30.024 16.4625 30.03 16.61C30.0333 16.7201 30.0609 16.8282 30.1107 16.9265C30.1606 17.0248 30.2314 17.1109 30.3183 17.1787C30.4052 17.2464 30.5059 17.2942 30.6134 17.3187C30.7209 17.3431 30.8324 17.3436 30.94 17.32C31.0807 17.2891 31.2087 17.2161 31.3069 17.1107C31.4052 17.0053 31.469 16.8725 31.49 16.73C31.5188 16.5273 31.4726 16.321 31.36 16.15C31.2607 16.0152 31.1186 15.9181 30.9569 15.8745C30.7953 15.8309 30.6236 15.8434 30.47 15.91ZM2.13001 18.23C2.01269 18.2844 1.91143 18.3683 1.83609 18.4734C1.76074 18.5786 1.71387 18.7014 1.70001 18.83C1.6984 19.05 1.77656 19.2632 1.92001 19.43C2.03169 19.5208 2.16437 19.5821 2.30589 19.6083C2.4474 19.6345 2.59323 19.6248 2.73001 19.58C2.83193 19.5338 2.92344 19.4674 2.99905 19.385C3.07466 19.3025 3.13282 19.2055 3.17001 19.1C3.2072 18.966 3.20589 18.8243 3.16624 18.6911C3.12659 18.5578 3.0502 18.4384 2.94583 18.3466C2.84146 18.2547 2.71333 18.1941 2.57612 18.1718C2.43891 18.1494 2.29816 18.1661 2.17001 18.22L2.13001 18.23ZM38.78 18.18C38.637 18.1651 38.4928 18.1921 38.3649 18.2578C38.2371 18.3235 38.1311 18.4251 38.06 18.55C38.0028 18.6649 37.973 18.7916 37.973 18.92C37.973 19.0484 38.0028 19.1751 38.06 19.29C38.1298 19.408 38.2318 19.5036 38.354 19.5656C38.4762 19.6276 38.6136 19.6534 38.75 19.64C38.8608 19.6356 38.9689 19.6041 39.0648 19.5483C39.1606 19.4925 39.2414 19.4141 39.3 19.32C39.3821 19.199 39.426 19.0562 39.426 18.91C39.426 18.7638 39.3821 18.621 39.3 18.5C39.2411 18.4127 39.1642 18.3391 39.0746 18.2839C38.9849 18.2287 38.8845 18.1933 38.78 18.18ZM18.64 23.87V23.92C18.64 23.92 18.65 23.87 18.64 23.87ZM17.49 24.9C17.5532 24.9266 17.6232 24.9322 17.6899 24.916C17.7565 24.8998 17.8161 24.8627 17.86 24.81C17.8926 24.7556 17.9098 24.6934 17.9098 24.63C17.9098 24.5666 17.8926 24.5044 17.86 24.45C17.8376 24.4118 17.8076 24.3787 17.7718 24.3528C17.736 24.3268 17.6952 24.3085 17.6519 24.2992C17.6087 24.2898 17.564 24.2894 17.5206 24.2982C17.4773 24.3069 17.4362 24.3246 17.4 24.35C17.3303 24.4208 17.2848 24.5118 17.27 24.61C17.2742 24.6746 17.2973 24.7365 17.3364 24.7881C17.3755 24.8396 17.4289 24.8786 17.49 24.9ZM23.58 24.92C23.6257 24.913 23.6695 24.897 23.709 24.873C23.7485 24.849 23.7828 24.8174 23.81 24.78C23.92 24.66 23.81 24.5 23.81 24.39C23.743 24.3315 23.6587 24.2964 23.57 24.29C23.48 24.29 23.38 24.29 23.33 24.41C23.2913 24.4677 23.2707 24.5356 23.2707 24.605C23.2707 24.6744 23.2913 24.7423 23.33 24.8C23.3978 24.8665 23.4857 24.9087 23.58 24.92ZM20.61 26.92C21.24 26.5 21.79 26.11 22.43 25.66C21.82 25.24 21.22 24.88 20.65 24.44H20.56C19.96 24.81 19.5 25.25 18.88 25.59C18.83 25.64 18.73 25.66 18.76 25.74C19.34 26.07 19.86 26.51 20.43 26.88C20.51 26.84 20.52 27 20.61 26.92ZM15.05 26.68L15.29 26.62C15.5067 26.5653 15.7087 26.4634 15.8816 26.3217C16.0544 26.1799 16.1939 26.0018 16.29 25.8C16.3034 25.7137 16.2949 25.6254 16.2652 25.5432C16.2355 25.4611 16.1855 25.3878 16.12 25.33C15.8752 25.1851 15.5944 25.1123 15.31 25.12C15.17 25.17 15.04 25.12 14.92 25.2C14.6522 25.2218 14.3945 25.3125 14.172 25.4631C13.9495 25.6138 13.7697 25.8194 13.65 26.06C13.6327 26.1533 13.6434 26.2496 13.6807 26.3368C13.7181 26.424 13.7805 26.4982 13.86 26.55C14.2243 26.7477 14.6517 26.7944 15.05 26.68ZM27.22 26.6C27.3089 26.5567 27.383 26.4879 27.4328 26.4025C27.4827 26.317 27.5061 26.2187 27.5 26.12C27.37 25.57 26.8 25.39 26.33 25.23C26.2849 25.2131 26.2352 25.2131 26.19 25.23L25.9 25.18C25.7137 25.1501 25.5228 25.1705 25.347 25.2391C25.1712 25.3076 25.0169 25.4219 24.9 25.57C24.8 25.79 24.95 26.03 25.08 26.19C25.3627 26.4516 25.7131 26.6286 26.0914 26.7011C26.4696 26.7736 26.8606 26.7385 27.22 26.6ZM12.06 25.81C12.16 25.81 12.32 25.81 12.39 25.74C12.4215 25.6816 12.438 25.6163 12.438 25.55C12.438 25.4837 12.4215 25.4184 12.39 25.36C12.3442 25.295 12.2781 25.247 12.2022 25.2234C12.1262 25.1999 12.0445 25.2022 11.97 25.23C11.9103 25.269 11.8639 25.3254 11.8371 25.3915C11.8103 25.4576 11.8043 25.5304 11.82 25.6C11.8398 25.652 11.872 25.6983 11.9139 25.7349C11.9557 25.7715 12.0059 25.7973 12.06 25.81ZM29.18 25.78C29.2319 25.7246 29.2655 25.6546 29.2762 25.5795C29.2869 25.5043 29.2743 25.4277 29.24 25.36C29.18 25.18 28.87 25.18 28.77 25.29C28.7305 25.3237 28.7012 25.3678 28.6853 25.4172C28.6694 25.4667 28.6676 25.5196 28.68 25.57C28.7013 25.662 28.7544 25.7434 28.83 25.8C28.94 25.81 29.09 25.85 29.18 25.78ZM17.49 26C17.438 26.024 17.3936 26.0619 17.3619 26.1096C17.3301 26.1572 17.3121 26.2128 17.31 26.27C17.31 26.4 17.39 26.5 17.48 26.58C17.5329 26.6117 17.5934 26.6285 17.655 26.6285C17.7167 26.6285 17.7772 26.6117 17.83 26.58C17.98 26.45 17.93 26.27 17.83 26.13C17.7923 26.0774 17.74 26.037 17.6796 26.0139C17.6191 25.9908 17.5532 25.9859 17.49 26ZM23.36 26.06C23.3061 26.1096 23.2686 26.1745 23.2525 26.2459C23.2364 26.3174 23.2425 26.3921 23.27 26.46C23.2913 26.5119 23.3272 26.5566 23.3733 26.5886C23.4195 26.6205 23.4739 26.6384 23.53 26.64C23.5857 26.6415 23.6408 26.6285 23.6899 26.6022C23.7391 26.5759 23.7804 26.5372 23.81 26.49C23.8492 26.4344 23.8702 26.368 23.8702 26.3C23.8702 26.232 23.8492 26.1656 23.81 26.11C23.7555 26.0459 23.6786 26.0049 23.5949 25.9957C23.5113 25.9864 23.4273 26.0094 23.36 26.06ZM12.17 27.27C12.17 27.41 12.32 27.45 12.4 27.51C12.4614 27.516 12.5233 27.5073 12.5806 27.4847C12.638 27.4621 12.6892 27.4262 12.73 27.38C12.73 27.28 12.82 27.13 12.73 27.05C12.7083 27.0082 12.6775 26.9719 12.6397 26.9439C12.6019 26.9158 12.5582 26.8967 12.5119 26.888C12.4657 26.8793 12.4181 26.8813 12.3727 26.8938C12.3273 26.9063 12.2853 26.9289 12.25 26.96C12.2123 27.0011 12.1852 27.0509 12.1712 27.105C12.1573 27.1591 12.1569 27.2157 12.17 27.27ZM28.81 27.5C28.89 27.45 28.97 27.4 28.98 27.29C28.99 27.18 28.98 27.05 28.89 26.97C28.8 26.89 28.73 26.87 28.61 26.89C28.5333 26.9297 28.4679 26.9882 28.42 27.06C28.42 27.19 28.42 27.38 28.51 27.46C28.5528 27.4909 28.6026 27.5107 28.655 27.5177C28.7073 27.5247 28.7606 27.5186 28.81 27.5ZM29 30.09C28.8201 30.0307 28.6364 29.9839 28.45 29.95C27.76 29.77 27.13 29.71 26.45 29.58H26.4C26.294 29.5628 26.186 29.5628 26.08 29.58C25.99 29.52 25.89 29.58 25.8 29.58C25.6837 29.593 25.5663 29.593 25.45 29.58C25.239 29.5733 25.0285 29.5533 24.82 29.52C24.566 29.5162 24.3123 29.4995 24.06 29.47C23.35 29.47 22.61 29.39 21.91 29.38H20.82C20.73 29.38 20.65 29.3 20.58 29.38H19.52C18.8524 29.3708 18.1848 29.3975 17.52 29.46C17.4142 29.4404 17.3058 29.4404 17.2 29.46H16.44C16.08 29.46 15.83 29.52 15.44 29.55C15.27 29.55 15.11 29.6 14.94 29.55C14.77 29.5 14.7 29.55 14.58 29.63C14.39 29.72 14.17 29.63 13.98 29.75C13.7752 29.7689 13.5716 29.799 13.37 29.84C12.8062 29.9482 12.2513 30.0986 11.71 30.29C11.37 30.47 10.83 30.57 10.71 31.02C10.7052 31.0927 10.7151 31.1656 10.7391 31.2343C10.7632 31.303 10.8009 31.3662 10.85 31.42C11.6286 31.912 12.5061 32.2261 13.42 32.34C14.3256 32.5132 15.2405 32.6334 16.16 32.7C17.28 32.82 18.38 32.87 19.54 32.89C19.99 32.83 20.45 32.97 20.93 32.89H21.93C22.2 32.83 22.56 32.89 22.84 32.84C23.48 32.79 24.12 32.84 24.74 32.72C25.8356 32.644 26.9248 32.4937 28 32.27C28.1692 32.2368 28.3361 32.1934 28.5 32.14C28.7816 32.0958 29.0592 32.029 29.33 31.94C29.75 31.75 30.33 31.61 30.47 31.12C30.4746 30.9847 30.4282 30.8527 30.34 30.75C29.9499 30.4302 29.4914 30.2044 29 30.09ZM27.65 30.68C27.8 30.68 27.98 30.68 28.16 30.6C28.34 30.52 28.16 30.72 28.16 30.78H27.65C27.61 30.77 27.63 30.74 27.63 30.68H27.65ZM28.06 30.95H27.77H27.95H28.06ZM26.79 30.71C26.9428 30.729 27.0973 30.729 27.25 30.71C27.2616 30.7694 27.2616 30.8306 27.25 30.89H26.73C26.66 30.89 26.66 30.71 26.77 30.71H26.79ZM27.29 31.01C27.1899 31.044 27.0856 31.0642 26.98 31.07C26.98 30.98 27.07 31.07 27.11 31.01C27.15 30.95 27.19 31 27.27 31L27.29 31.01ZM26.7 31.01H26.81H26.71H26.7ZM26.7 31.37H27.39V31.5C27.22 31.5 27.09 31.55 26.93 31.5H26.71C26.71 31.5 26.63 31.44 26.64 31.4L26.7 31.37ZM25.83 30.75C26.0131 30.7629 26.1969 30.7629 26.38 30.75V30.87C26.3614 30.8817 26.3461 30.8979 26.3355 30.9172C26.3249 30.9364 26.3193 30.958 26.3193 30.98C26.3193 31.002 26.3249 31.0236 26.3355 31.0428C26.3461 31.0621 26.3614 31.0783 26.38 31.09H26.43V31.15L25.79 31.2L25.83 30.75ZM25.73 31.4H26.45V31.55L26 31.49C25.94 31.49 25.92 31.56 25.9 31.59H25.71L25.73 31.4ZM25.21 30.26C25.26 30.2 25.37 30.26 25.43 30.26H25.21C25.21 30.26 25.22 30.27 25.22 30.26H25.21ZM25.16 30.77H25.58V31.18C25.5 31.23 25.36 31.18 25.27 31.23C25.18 31.28 25.13 31.23 25.09 31.23C25.05 31.23 25.15 30.92 25.17 30.77H25.16ZM24.46 30.22C24.46 30.22 24.68 30.15 24.73 30.22V30.4C24.64 30.4 24.56 30.45 24.45 30.4C24.34 30.35 24.45 30.27 24.45 30.17L24.46 30.22ZM24.12 30.13C24.12 30.13 24.18 30.13 24.18 30.18H24.28C24.23 30.18 24.28 30.28 24.28 30.33C24.2378 30.399 24.1836 30.46 24.12 30.51C24.12 30.39 24.08 30.24 24.12 30.13ZM24.05 30.8C24.13 30.8 24.33 30.72 24.31 30.89C24.3166 30.8983 24.3249 30.905 24.3344 30.9097C24.344 30.9143 24.3544 30.9167 24.365 30.9167C24.3756 30.9167 24.3861 30.9143 24.3956 30.9097C24.4051 30.905 24.4135 30.8983 24.42 30.89C24.42 30.7 24.64 30.84 24.73 30.78C24.82 30.72 24.8 31.08 24.83 31.23H24.01L24.05 30.8ZM23.56 30C23.6033 30.1802 23.6268 30.3647 23.63 30.55H23.54C23.5213 30.3666 23.528 30.1815 23.56 30ZM23.23 30H23.32C23.33 30 23.32 30.21 23.32 30.27V30.6H23.1C23.15 30.36 23.19 30.17 23.23 30ZM22.23 30C22.31 30.09 22.36 29.87 22.42 30C22.42 29.94 22.56 30 22.61 30C22.61 30.21 22.61 30.44 22.68 30.64C22.4815 30.6711 22.281 30.6878 22.08 30.69C22.13 30.42 22.19 30.18 22.23 30ZM19.53 30.06H19.64C19.72 30.29 19.58 30.52 19.64 30.71H19.5C19.5003 30.4728 19.5137 30.2358 19.54 30L19.53 30.06ZM18.6 30.06C18.7321 30.0324 18.8657 30.0124 19 30V30.07L19.13 30.67H18.54L18.6 30.06ZM17.89 30.06H17.99L18.09 30.62H17.83C17.8766 30.4166 17.9001 30.2086 17.9 30L17.89 30.06ZM17.89 30.84C18 30.84 18.26 30.76 18.21 30.99C18.1981 31.0628 18.1981 31.1372 18.21 31.21C18.15 31.21 18.05 31.21 18.02 31.16C17.9717 31.1415 17.9183 31.1415 17.87 31.16C17.87 31.16 17.87 31.23 17.81 31.16V31.06C17.86 31 17.81 30.91 17.86 30.81L17.89 30.84ZM17.63 30C17.77 30.1 17.63 30.32 17.63 30.46V30.55H17.54C17.59 30.35 17.61 30.17 17.63 30ZM17.53 30.82H17.66C17.6417 30.9292 17.6417 31.0408 17.66 31.15C17.66 31.09 17.57 31.15 17.49 31.15L17.53 30.82ZM17.08 30.09C17.1045 30.2222 17.1045 30.3578 17.08 30.49H16.87C17 30.32 16.82 30 17.08 30.08V30.09ZM17.18 30.96V31.15C17.08 31.15 16.99 31.23 16.9 31.15C16.81 31.07 16.82 31.15 16.78 31.15C16.74 31.15 16.78 30.92 16.78 30.79C16.93 30.84 17.24 30.64 17.18 30.95V30.96ZM16.55 30.18C16.55 30.18 16.68 30.18 16.63 30.27C16.58 30.36 16.63 30.35 16.63 30.4H16.45C16.49 30.31 16.46 30.18 16.55 30.17V30.18ZM16.42 30.8H16.64C16.6271 30.9197 16.6271 31.0403 16.64 31.16C16.5615 31.1817 16.4785 31.1817 16.4 31.16L16.42 30.8ZM16 30.29C16 30.37 15.85 30.29 15.83 30.29C15.81 30.29 16 30.21 16 30.29ZM15.64 30.75H16.03L16.08 31.12C15.92 31.03 15.8 31.12 15.6 31.06C15.6 30.95 15.56 30.82 15.64 30.76V30.75ZM14.83 30.75V30.65C15.0025 30.6743 15.1775 30.6743 15.35 30.65C15.35 30.75 15.53 30.97 15.35 30.97C15.1738 30.9881 14.9962 30.9881 14.82 30.97C14.75 30.77 14.97 30.83 15.03 30.71C15.09 30.59 14.89 30.8 14.83 30.8V30.75ZM14.75 31.34H15.47C15.4841 31.4345 15.5042 31.528 15.53 31.62C15.62 31.57 15.53 31.44 15.53 31.35H16.06V31.65H15.92C15.7 31.72 15.53 31.65 15.28 31.65C15.14 31.65 14.88 31.65 14.82 31.56C14.76 31.47 14.77 31.63 14.73 31.56L14.75 31.34ZM14 30.68C14.1674 30.6879 14.3343 30.7046 14.5 30.73V30.82C14.5 30.81 14.36 30.82 14.29 30.82C14.22 30.82 14.29 30.91 14.29 30.97C14.314 30.9549 14.3417 30.9469 14.37 30.9469C14.3983 30.9469 14.4261 30.9549 14.45 30.97C14.45 30.89 14.55 30.97 14.59 30.97C14.63 30.97 14.64 31.05 14.59 31.09C14.3891 31.0808 14.1888 31.0607 13.99 31.03L14 30.68ZM13.91 31.37H14.58C14.53 31.46 14.58 31.51 14.58 31.59C14.58 31.67 14.36 31.59 14.29 31.59H14.06C14.06 31.59 13.99 31.59 14.01 31.64C14.03 31.69 13.92 31.57 13.9 31.64C13.8642 31.64 13.8299 31.6258 13.8046 31.6005C13.7792 31.5751 13.765 31.5408 13.765 31.505C13.765 31.4692 13.7792 31.4349 13.8046 31.4095C13.8299 31.3842 13.8642 31.37 13.9 31.37H13.91ZM13 30.72C13.1815 30.7297 13.3634 30.7128 13.54 30.67V30.95C13.4 31.01 13.2 30.95 13.03 30.95L13 30.72ZM12.63 30.47C12.6156 30.489 12.5976 30.505 12.577 30.517C12.5564 30.5291 12.5337 30.5369 12.51 30.54C12.5237 30.5157 12.5444 30.4961 12.5693 30.4836C12.5943 30.4711 12.6224 30.4664 12.65 30.47H12.63ZM12.55 31.36V31.28V31.37C12.55 31.39 12.61 31.31 12.57 31.36H12.55ZM12.62 30.87C12.62 30.82 12.31 30.87 12.45 30.78C12.59 30.69 12.55 30.78 12.62 30.78L12.64 30.87H12.62ZM13.01 31.33L13.42 31.38V31.51H12.99C12.99 31.51 13 31.39 13 31.33H13.01ZM14.6 32.01H14.35C13.8903 31.9719 13.437 31.8779 13 31.73C13.17 31.73 13.36 31.73 13.51 31.83C13.8716 31.8356 14.2325 31.8656 14.59 31.92L14.6 32.01ZM16.13 32.16H15.96C15.47 32.16 15.1 32.07 14.69 32.04V31.91C14.83 31.99 14.96 31.91 15.1 31.91C15.19 31.78 15.33 31.91 15.43 31.91V31.96C15.6546 31.9163 15.8855 31.9163 16.11 31.96C16.15 32 16.22 32.12 16.14 32.17L16.13 32.16ZM16.26 32.16C16.26 32.04 16.26 31.86 16.42 31.9C16.58 31.94 16.84 31.97 16.67 31.7H16.35V31.4C16.6425 31.369 16.9375 31.369 17.23 31.4C17.23 31.67 17.23 31.99 17.33 32.26C16.9748 32.2516 16.6206 32.2182 16.27 32.16H16.26ZM23.84 32.23H23.28C23.42 32.07 23.11 31.92 23.23 31.77C23.35 31.62 23.23 31.66 23.15 31.64C23.07 31.62 22.98 31.79 22.92 31.88C22.9337 31.9394 22.9355 32.0009 22.9251 32.061C22.9148 32.1211 22.8927 32.1785 22.86 32.23H22.91C22.7468 32.22 22.5832 32.22 22.42 32.23H21.42C20.17 32.23 18.65 32.23 17.42 32.14C17.42 31.86 17.5 31.55 17.53 31.24H17.84C17.93 31.29 18.03 31.17 18.11 31.24C18.19 31.31 18.25 31.24 18.31 31.24C18.31 31.43 18.38 31.66 18.41 31.87C18.46 31.87 18.48 31.82 18.49 31.78V31.24C18.57 31.24 18.68 31.38 18.75 31.24C18.82 31.1 18.81 31.24 18.75 31.24C18.69 31.24 18.92 31.24 18.93 31.15C18.94 31.06 18.64 31.15 18.47 31.07V30.69H18.88C18.9666 30.6949 19.0534 30.6949 19.14 30.69C19.14 31.04 19.31 31.42 19.38 31.78C19.48 31.66 19.38 31.5 19.43 31.34C19.4496 31.1071 19.4496 30.8729 19.43 30.64C19.43 30.64 19.5 30.69 19.52 30.64C19.54 30.59 19.57 30.71 19.59 30.64C19.61 30.57 19.64 30.75 19.68 30.79C19.72 30.83 19.76 30.67 19.8 30.6C19.86 30.6 19.95 30.6 19.99 30.49C19.9767 30.4669 19.9579 30.4475 19.9352 30.4335C19.9125 30.4195 19.8866 30.4114 19.86 30.41V29.78H20.21C20.29 30.5 20.35 31.28 20.45 31.96L20.95 30H21.67V30.67C21.5588 30.7007 21.4413 30.7007 21.33 30.67C21.33 30.67 21.2 30.75 21.25 30.81C21.3 30.87 21.53 30.86 21.68 30.91C21.68 31.3 21.68 31.59 21.73 31.96C21.85 31.63 21.87 31.24 21.98 30.96C22.04 30.96 22.16 30.96 22.15 30.88H22.64C22.69 31.25 22.7 31.69 22.77 32.07C22.8561 31.8813 22.9037 31.6773 22.91 31.47C22.91 31.29 22.99 31.08 23.01 30.89H23.34C23.34 30.97 23.34 31.02 23.39 31.08C23.44 31.14 23.49 30.84 23.62 30.89L23.76 32.2C23.87 32.16 23.84 32.21 23.84 32.23ZM23.92 32.23C23.9213 31.9357 23.9413 31.6418 23.98 31.35H24.29C24.38 31.35 24.34 31.3 24.37 31.35C24.4 31.4 24.53 31.35 24.6 31.35H24.84C24.91 31.62 24.89 31.85 24.95 32.12C24.64 32.22 24.27 32.22 23.92 32.25V32.23ZM26.43 32.04C26 32.09 25.5 32.09 25.03 32.17C24.97 32.17 25.03 32.08 25.03 32.04C25.0247 31.8166 25.0551 31.5938 25.12 31.38H25.61C25.61 31.51 25.69 31.62 25.61 31.71C25.66 31.79 25.76 31.71 25.8 31.8C26.0397 31.7818 26.2804 31.7818 26.52 31.8C26.47 31.9 26.59 32 26.43 32.05V32.04ZM28 31.82C27.53 31.9 27.06 31.98 26.55 32.03V31.79L27.4 31.7C27.54 31.61 27.71 31.7 27.86 31.7H28.11C28.19 31.8 28.05 31.76 28 31.82ZM28.14 31.44C28.06 31.49 28.01 31.44 27.94 31.49H27.73V31.4C27.8626 31.3801 27.9974 31.3801 28.13 31.4C28.21 31.39 28.15 31.41 28.16 31.44H28.14ZM28.51 30.44C28.74 30.44 28.79 30.66 28.95 30.82C28.8003 30.832 28.6498 30.832 28.5 30.82L28.51 30.44ZM28.92 31.44C28.92 31.44 28.73 31.44 28.64 31.5H28.54V31.3C28.71 31.3 28.83 31.3 29.02 31.25C29.05 31.32 29 31.33 28.95 31.37L28.92 31.44Z" fill="black"/>
<path d="M40.91 16.24L40.4 16.56V16.62C40.5107 17.2619 40.5107 17.9181 40.4 18.56C40.3123 19.0389 40.0883 19.4824 39.7548 19.8371C39.4213 20.1919 38.9926 20.4429 38.52 20.56C38.07 20.69 37.76 20.42 37.47 20.15C37.18 19.88 36.58 19.37 36.19 18.97C36.54 18.7 36.74 18.34 37.05 18.06C37.36 17.78 37.31 17.34 37.32 16.93C37.2416 16.1327 36.9221 15.3782 36.404 14.7672C35.8858 14.1562 35.1938 13.7176 34.42 13.51C34.33 13.51 34.27 13.34 34.19 13.38C34.19 13.25 34.09 13.38 34.05 13.32C33.9964 13.008 33.9195 12.7005 33.82 12.4C33.5846 11.697 33.1058 11.1012 32.47 10.72C32.65 11.26 33.06 11.72 33.25 12.25C33.97 14.15 33.16 16.25 32.25 17.79C31.48 17.95 30.72 18.07 29.96 18.21C29.6 17.8 29.29 17.32 28.96 16.91C29.24 16.12 29.56 15.27 29.79 14.45C29.898 13.9531 29.9004 13.4391 29.797 12.9413C29.6936 12.4434 29.4868 11.9728 29.19 11.56C29.0108 11.164 28.7551 10.8073 28.4376 10.5104C28.1201 10.2136 27.7471 9.98231 27.34 9.83C26.9528 9.65667 26.5467 9.52914 26.13 9.45L25.77 9.38H25.27C24.7238 9.29887 24.1701 9.28209 23.62 9.33C23.5179 9.11686 23.383 8.92113 23.22 8.75C23.1676 8.61013 23.1075 8.47326 23.04 8.34H22.9C22.8835 8.31534 22.8612 8.29513 22.835 8.28117C22.8089 8.26722 22.7797 8.25994 22.75 8.26C22.75 8.26 22.68 8.4 22.75 8.43C22.82 8.46 22.75 8.57 22.86 8.56C23.2312 9.52166 23.4603 10.5323 23.54 11.56C23.54 12.36 23.62 13.32 23.54 14.09C23.4912 15.0798 23.3096 16.0586 23 17C22.9 17 22.91 17.11 22.86 17.14C22.81 17.17 22.73 17.33 22.68 17.4C22.63 17.47 22.63 17.49 22.63 17.53C22.63 17.57 22.63 17.65 22.72 17.62C22.81 17.59 22.86 17.44 22.98 17.42C23.1 17.4 22.98 17.33 23.05 17.28C23.4805 16.9252 23.7856 16.4414 23.92 15.9C24.4595 13.9839 24.4595 11.9561 23.92 10.04C24.2 10.12 24.43 10.04 24.73 10.12H24.87C25.713 10.1805 26.5289 10.4439 27.2481 10.888C27.9672 11.332 28.5683 11.9434 29 12.67C29.63 14 28.94 15.52 28.19 16.54C28.0792 16.6491 27.9849 16.7737 27.91 16.91C28.17 17.25 28.5 17.6 28.8 17.91C28.5 18.1 28.39 18.47 28.21 18.78C28.09 18.73 27.89 18.69 27.76 18.65C27.63 18.61 27.45 18.57 27.28 18.65C27.11 18.73 26.97 18.65 26.96 18.85C27.06 19.27 27.58 19.29 27.66 19.71L27.39 19.94C27.1968 20.058 26.9762 20.1235 26.75 20.13C26.62 20.07 26.46 20.13 26.34 20.08C26.218 20.1059 26.092 20.1059 25.97 20.08C25.78 20.08 25.66 19.99 25.5 19.95C25.358 19.8712 25.2374 19.7589 25.1486 19.623C25.0597 19.4871 25.0053 19.3316 24.99 19.17C25.14 19.17 25.23 19 25.36 18.93C25.4443 18.7987 25.4894 18.646 25.49 18.49C25.4951 18.3773 25.4733 18.265 25.4263 18.1624C25.3794 18.0597 25.3086 17.9698 25.22 17.9C25.0942 17.8066 24.9417 17.7562 24.785 17.7562C24.6283 17.7562 24.4758 17.8066 24.35 17.9C24.2535 17.9704 24.1745 18.062 24.119 18.1678C24.0635 18.2735 24.0331 18.3906 24.03 18.51C24.03 18.69 24.15 18.83 24.2 18.99C24.06 19.27 23.78 19.42 23.6 19.64C23.42 19.86 23.31 19.91 23.11 19.9C22.6915 19.9906 22.2585 19.9906 21.84 19.9C21.7714 19.8506 21.6929 19.8165 21.61 19.8C21.4323 19.7248 21.2802 19.5998 21.172 19.4401C21.0638 19.2805 21.004 19.0929 21 18.9C21.11 18.85 21.2 18.74 21.33 18.68C21.46 18.62 21.82 18.68 22.01 18.47C22.0532 18.4411 22.0868 18.4 22.1064 18.3519C22.126 18.3037 22.1307 18.2508 22.12 18.2C21.85 17.84 21.35 17.92 20.98 17.86C21.0026 17.4642 20.8974 17.0715 20.68 16.74C20.6387 16.7121 20.5899 16.6971 20.54 16.6971C20.4901 16.6971 20.4413 16.7121 20.4 16.74C20.2549 16.9935 20.1726 17.2781 20.16 17.57C20.11 17.65 20.16 17.76 20.16 17.85C19.9113 17.8521 19.6634 17.8789 19.42 17.93C19.3 18.03 18.98 18.03 19.03 18.29C19.1239 18.3998 19.2404 18.4879 19.3716 18.5483C19.5028 18.6087 19.6456 18.64 19.79 18.64C19.8404 18.6919 19.9079 18.7239 19.98 18.73C19.98 18.81 20.1 18.73 20.08 18.85C20.06 18.97 20.08 18.9 20.17 18.85C20.1488 19.0754 20.0579 19.2886 19.91 19.46C19.6428 19.6472 19.3366 19.7715 19.0144 19.8235C18.6923 19.8754 18.3625 19.8537 18.05 19.76C17.6529 19.5482 17.3105 19.2469 17.05 18.88C16.99 18.83 17.05 18.74 17.1 18.69C17.1638 18.5622 17.1893 18.4186 17.1733 18.2767C17.1573 18.1347 17.1006 18.0004 17.01 17.89C16.9238 17.7956 16.816 17.7236 16.6958 17.68C16.5756 17.6365 16.4467 17.6227 16.32 17.64C16.1706 17.6613 16.0311 17.7271 15.9197 17.8289C15.8083 17.9308 15.7302 18.0638 15.6956 18.2107C15.6611 18.3576 15.6716 18.5116 15.7259 18.6524C15.7802 18.7932 15.8757 18.9143 16 19C16.09 19 16.14 19.05 16.22 19.09C16.2057 19.2683 16.1396 19.4386 16.03 19.58C15.9293 19.7011 15.8073 19.8028 15.67 19.88C15.4047 20.0051 15.1129 20.0634 14.82 20.05C14.4795 20.1235 14.1239 20.0701 13.82 19.9C13.714 19.8202 13.6198 19.726 13.54 19.62C13.63 19.57 13.67 19.44 13.76 19.4C13.93 19.19 14.27 19.07 14.25 18.76C14.17 18.61 13.98 18.61 13.84 18.61L13.39 18.69C13.25 18.69 13.13 18.8 12.99 18.76C12.8881 18.4347 12.6935 18.1462 12.43 17.93C12.72 17.58 13.04 17.23 13.33 16.93C12.4836 16.0068 12.0097 14.8024 12 13.55C12.1513 12.8392 12.4897 12.1817 12.9802 11.6455C13.4707 11.1093 14.0955 10.7138 14.79 10.5C15.557 10.1907 16.3732 10.0213 17.2 10V10.06C16.6848 11.9522 16.6848 13.9478 17.2 15.84C17.338 16.406 17.6663 16.9073 18.13 17.26C18.23 17.26 18.18 17.52 18.31 17.39C18.44 17.26 18.31 17.24 18.23 17.21C17.844 16.2813 17.6175 15.2941 17.56 14.29C17.56 13.75 17.51 13.2 17.51 12.67C17.4973 12.5002 17.4973 12.3298 17.51 12.16C17.522 11.6113 17.5654 11.0637 17.64 10.52C17.72 9.87452 17.8847 9.24241 18.13 8.64C18.13 8.46 18.37 8.38 18.39 8.19L18.33 8.1C18.24 8.1 18.2 8.2 18.1 8.19C18.1 8.37 17.95 8.42 17.87 8.59C17.6978 8.80205 17.5408 9.02593 17.4 9.26C16.6737 9.20867 15.9437 9.25577 15.23 9.4C14.96 9.4 14.73 9.52 14.5 9.55C13.9281 9.72896 13.3832 9.98462 12.88 10.31C12.4751 10.6127 12.1351 10.9936 11.88 11.43C11.4471 12.1202 11.177 12.8999 11.09 13.71C11.2953 14.7997 11.631 15.8606 12.09 16.87V17C11.78 17.45 11.45 17.81 11.14 18.23C10.86 18.3 10.61 18.13 10.31 18.13C9.85999 18.04 9.30999 17.98 8.86999 17.9C7.94369 16.5532 7.50612 14.9299 7.62999 13.3C7.81274 12.4359 8.15163 11.6124 8.62999 10.87C8.21078 11.1528 7.85723 11.5224 7.59326 11.9537C7.32929 12.385 7.16107 12.868 7.09999 13.37C7.05965 13.3981 7.01411 13.4179 6.96603 13.4282C6.91796 13.4385 6.86831 13.4391 6.81999 13.43C6.78764 13.4414 6.75235 13.4414 6.71999 13.43L6.52999 13.53C6.52999 13.53 6.43999 13.53 6.44999 13.58C5.48908 13.9629 4.69287 14.6706 4.19999 15.58C3.88043 16.2595 3.78585 17.0231 3.92999 17.76L4.52999 18.49C4.69999 18.63 4.80999 18.77 4.97999 18.94C4.74999 19.2 4.44999 19.43 4.19999 19.67C3.86688 20.0657 3.45913 20.3919 2.99999 20.63C2.46337 20.5414 1.95584 20.3254 1.51999 20C1.16048 19.6916 0.90544 19.2794 0.789994 18.82C0.642365 18.0806 0.642365 17.3194 0.789994 16.58L0.299994 16.23H0.189994C0.0536995 17.0057 -0.00990954 17.7925 -6.22391e-06 18.58C0.0499938 19.14 0.0799938 19.86 0.579994 20.22C0.669994 20.28 0.699994 20.41 0.809994 20.45C0.918191 20.573 1.04267 20.6807 1.17999 20.77L1.30999 20.94C1.37999 20.94 1.37999 21.08 1.46999 21.03C1.55999 20.98 1.68999 21.11 1.69999 21.21C1.91999 21.32 2.09999 21.49 2.32999 21.61C2.32999 21.66 2.46999 21.67 2.47999 21.72C2.48999 21.77 2.57999 21.79 2.62999 21.8C2.67999 21.81 2.75999 21.8 2.81999 21.8C2.87999 21.8 3.00999 21.7 3.13999 21.68C3.58871 21.3931 4.00454 21.0577 4.37999 20.68C4.42999 20.68 4.37999 20.76 4.37999 20.77C4.42999 20.85 4.55999 20.91 4.51999 21.01V20.96C4.59999 21.05 4.60999 21.12 4.68999 21.18C4.76999 21.24 4.85999 21.29 4.95999 21.35C5.05999 21.41 5.10999 21.48 5.13999 21.58C5.16999 21.68 5.13999 21.58 5.13999 21.63C5.32007 21.7432 5.47083 21.8974 5.57999 22.08C5.76999 22.18 5.81999 22.4 5.95999 22.54C6.12999 22.54 6.14999 22.71 6.23999 22.76C6.42647 22.9668 6.58761 23.195 6.71999 23.44V23.56C6.81999 23.8 6.97999 24 6.90999 24.29L6.69999 24.47C6.53175 24.6102 6.40874 24.7971 6.34646 25.007C6.28418 25.217 6.28541 25.4407 6.34999 25.65C6.45029 25.8071 6.60833 25.9184 6.78999 25.96C6.90999 25.96 6.94999 26.14 7.01999 26.22C7.06999 26.22 7.01999 26.22 7.01999 26.28C7.06999 26.28 7.06999 26.28 7.06999 26.36C7.06999 26.44 7.23999 26.5 7.27999 26.59C7.26376 26.5953 7.24623 26.5953 7.22999 26.59C7.38999 26.59 7.31999 26.79 7.46999 26.78C7.57442 26.8895 7.656 27.0187 7.70999 27.16C7.97958 27.5211 8.22671 27.8985 8.44999 28.29V28.44C8.49999 28.44 8.44999 28.53 8.44999 28.53C8.51901 28.6079 8.57628 28.6955 8.61999 28.79V28.89C8.61999 28.9 8.69999 29.03 8.61999 29.07V29.26H8.56999V29.36C8.56999 29.36 8.43999 29.46 8.42999 29.55C8.13013 29.6827 7.86749 29.8871 7.66521 30.1452C7.46293 30.4033 7.3272 30.7071 7.26999 31.03C7.29801 31.3179 7.39905 31.594 7.56354 31.832C7.72803 32.0699 7.95054 32.262 8.20999 32.39C9.61232 33.2149 11.1606 33.7616 12.77 34C13.77 34.23 14.72 34.33 15.77 34.47L16.61 34.58C18.19 34.68 19.74 34.77 21.47 34.73H22.26L23.82 34.64C24.22 34.64 24.55 34.55 24.97 34.54C25.1 34.54 25.18 34.46 25.29 34.54C25.4 34.62 25.61 34.54 25.7 34.46L26.57 34.36C28.3564 34.1475 30.1058 33.6933 31.77 33.01C32.48 32.65 33.31 32.28 33.55 31.41C33.79 30.54 32.81 29.91 32.18 29.56C32.2142 29.2201 32.2846 28.8849 32.39 28.56C32.39 28.47 32.47 28.47 32.5 28.44C32.62 28.33 32.68 28.17 32.86 28.1C33.04 28.03 32.95 27.93 33.01 27.91C33.07 27.89 33.11 27.73 33.15 27.6C33.19 27.47 33.34 27.28 33.42 27.1C33.5 26.92 33.59 26.89 33.66 26.79C33.73 26.69 33.66 26.73 33.66 26.79V26.71C33.75 26.62 33.81 26.51 33.92 26.49C33.9726 26.4067 34.0194 26.3198 34.06 26.23V26.17C34.2149 26.1278 34.363 26.0638 34.5 25.98C34.5721 25.9165 34.6292 25.8379 34.6672 25.7497C34.7052 25.6615 34.7233 25.566 34.72 25.47C34.7116 25.2118 34.6419 24.9592 34.5168 24.7332C34.3916 24.5071 34.2145 24.3141 34 24.17V24.08C34.1728 23.7056 34.3734 23.3446 34.6 23C34.65 22.9 34.78 22.86 34.77 22.74C34.91 22.45 35.18 22.32 35.3 22.07C35.38 22.07 35.38 21.9 35.48 21.9C35.58 21.9 35.61 21.69 35.72 21.66V21.61C36.1041 21.3603 36.4175 21.0159 36.63 20.61C37.0571 21.012 37.5152 21.3798 38 21.71C38.78 21.8 39.28 21.17 39.89 20.81C40.28 20.45 40.69 20.27 40.96 19.81C41.2329 18.6611 41.2499 17.4662 41.01 16.31L40.91 16.24ZM7.19999 21.76C7.01999 21.71 6.79999 21.68 6.68999 21.52C6.83999 21.42 6.86999 21.22 7.02999 21.16C6.95999 21.02 7.15999 20.95 7.21999 20.87C7.27999 20.79 7.48999 20.54 7.39999 20.33C7.30999 20.12 7.06999 20.22 6.87999 20.2C6.54231 20.2969 6.22883 20.4638 5.95999 20.69C5.7647 20.4104 5.51252 20.1753 5.21999 20C5.58999 19.68 5.93999 19.3 6.29999 19V18.92C5.85523 18.7117 5.48367 18.3741 5.23389 17.9513C4.98411 17.5284 4.86774 17.04 4.89999 16.55C5.02676 15.9573 5.33008 15.4169 5.76999 15C6.01604 14.7462 6.28746 14.5184 6.57999 14.32H6.73999C6.80999 14.37 6.88999 14.32 6.92999 14.44C6.98999 14.44 7.01999 14.52 7.06999 14.44C7.13999 14.72 7.11999 15.16 7.19999 15.44C7.4113 16.4105 7.71605 17.3582 8.10999 18.27C8.21445 18.3048 8.32144 18.3316 8.42999 18.35C8.73999 18.44 9.13999 18.47 9.47999 18.59C10.01 18.69 10.58 18.79 11.11 18.95V19.04C11.22 19.1 11.34 19.04 11.44 19.04C11.68 18.81 11.88 18.54 12.09 18.35C12.106 18.5336 12.1429 18.7148 12.2 18.89C12.1339 19.0005 12.0453 19.0959 11.94 19.17V19.25C11.73 19.43 11.26 19.56 11.4 19.94C11.4848 20.0035 11.5839 20.0449 11.6887 20.0606C11.7934 20.0763 11.9003 20.0658 12 20.03C12.13 20.14 12.2 20.03 12.39 20.11H12.52C12.58 20.11 12.52 20.03 12.59 20.02C12.5784 20.2189 12.5186 20.412 12.4158 20.5828C12.3131 20.7535 12.1704 20.8967 12 21C11.6868 21.1301 11.3432 21.1691 11.0089 21.1125C10.6745 21.0559 10.3629 20.906 10.11 20.68C9.99999 20.54 9.81999 20.47 9.79999 20.26C9.88671 20.1676 9.94196 20.0502 9.95782 19.9244C9.97368 19.7987 9.94933 19.6712 9.88827 19.5602C9.82721 19.4492 9.73256 19.3603 9.6179 19.3064C9.50324 19.2525 9.37445 19.2362 9.24999 19.26C9.1338 19.2733 9.02362 19.3188 8.93178 19.3912C8.83994 19.4636 8.77007 19.5601 8.72999 19.67C8.70212 19.7674 8.69573 19.8697 8.71127 19.9699C8.72681 20.07 8.7639 20.1656 8.81999 20.25C8.91999 20.37 9.08999 20.4 9.16999 20.56C9.17951 20.7213 9.15201 20.8826 9.08962 21.0317C9.02722 21.1808 8.93158 21.3136 8.80999 21.42C8.4125 21.6604 7.9544 21.7819 7.48999 21.77C7.40999 21.72 7.31999 21.79 7.19999 21.76ZM8.19999 26.81C8.07999 26.55 7.92999 26.32 7.82999 26.09C8.08999 26.09 8.13999 26.29 8.23999 26.49C8.29999 26.49 8.31999 26.49 8.34999 26.4C8.37999 26.31 8.34999 26.3 8.34999 26.25V26.33C8.34999 26.23 8.51999 26.33 8.53999 26.16C8.55999 25.99 8.47999 26.16 8.47999 26.1H8.55999L8.91999 26.83C8.64999 26.86 8.40999 26.8 8.14999 26.81H8.19999ZM8.30999 31.4C8.30999 31.4 8.35999 31.4 8.38999 31.45C8.38336 31.4672 8.37016 31.4811 8.35328 31.4886C8.3364 31.4961 8.31723 31.4966 8.29999 31.49C8.28275 31.4834 8.26885 31.4702 8.26135 31.4533C8.25385 31.4364 8.25336 31.4172 8.25999 31.4H8.30999ZM8.43999 31.73H8.38999H8.44999H8.43999ZM32.3 30.09L32.18 30C32.09 30 32.06 29.94 31.96 30C31.86 30.06 32.01 30.1 32.04 30.13C32.07 30.16 32.25 30.13 32.3 30.21C32.35 30.29 32.35 30.21 32.38 30.21C32.41 30.21 32.31 30.26 32.38 30.33C32.4617 30.4163 32.5654 30.4785 32.68 30.51C32.77 30.51 32.92 30.57 32.95 30.68C32.95 30.59 33 30.68 33.04 30.68C33.08 30.68 32.95 30.74 32.95 30.8C32.95 30.86 33.08 30.8 33.05 30.93C33.0386 31.0096 33.0386 31.0904 33.05 31.17C33.15 31.17 33.05 31.28 33.05 31.34C33.05 31.4 33.05 31.34 32.99 31.34C32.93 31.34 32.87 31.46 32.87 31.52C32.7736 31.5767 32.6591 31.5946 32.55 31.57C32.5 31.57 32.32 31.57 32.27 31.69C32.22 31.81 32.27 31.81 32.4 31.81C32.45 31.81 32.4 31.9 32.5 31.86C31.6389 32.4097 30.6824 32.7929 29.68 32.99C29.2651 33.1052 28.8446 33.1986 28.42 33.27C28.01 33.33 27.6 33.41 27.18 33.46C26.26 33.61 25.23 33.71 24.33 33.79C23.6 33.85 22.75 33.85 22.03 33.89H18.68C17.62 33.89 16.68 33.79 15.68 33.7H15.26C14.34 33.7 13.54 33.43 12.71 33.34C12.1719 33.241 11.6408 33.1074 11.12 32.94C10.5215 32.7788 9.93644 32.5715 9.36999 32.32C9.1594 32.1252 8.92801 31.9542 8.67999 31.81C8.67967 31.7659 8.66965 31.7225 8.65064 31.6827C8.63163 31.643 8.60409 31.6079 8.56999 31.58C8.69999 31.53 8.56999 31.44 8.56999 31.36C8.44707 31.2534 8.30887 31.1657 8.15999 31.1C8.10999 31 8.15999 30.88 8.15999 30.77C8.15999 30.66 8.25999 30.69 8.32999 30.67C8.39999 30.65 8.42999 30.67 8.46999 30.61L8.77999 30.56V30.41C8.77999 30.4 8.55999 30.41 8.48999 30.41C8.62999 30.34 8.68999 30.21 8.81999 30.12C8.86999 30.05 9.08999 30.07 8.99999 29.93C9.8431 29.4596 10.7538 29.1222 11.7 28.93C12.8666 28.658 14.0489 28.4576 15.24 28.33C15.84 28.28 16.42 28.19 17.01 28.17C17.93 28.17 19.09 28.03 19.93 28.05C21.03 28.05 22.28 28.05 23.35 28.14C24.7 28.21 25.8 28.31 27.06 28.48C27.06 28.54 27.16 28.48 27.19 28.48C28.9191 28.6911 30.6054 29.1666 32.19 29.89L32.3 30.09ZM9.65999 25.89C10.06 26.76 10.43 27.61 10.83 28.45C10.92 28.39 10.83 28.31 10.83 28.22L9.99999 25.45L10.06 25.62C10.01 25.68 10.12 25.62 10.06 25.71C10.1427 25.9291 10.2128 26.1528 10.27 26.38C10.27 26.43 10.38 26.38 10.41 26.38C10.44 26.38 10.28 25.99 10.23 25.8C10.2413 25.7956 10.2516 25.789 10.2603 25.7805C10.269 25.772 10.2759 25.7619 10.2806 25.7507C10.2853 25.7395 10.2876 25.7274 10.2875 25.7153C10.2874 25.7031 10.2849 25.6911 10.28 25.68V25.63C10.28 25.51 10.42 25.71 10.46 25.58C10.5 25.45 10.51 25.65 10.56 25.58C10.67 25.72 10.69 26 10.79 26.19C10.89 26.38 10.93 26.51 10.97 26.69C11.01 26.87 11.11 26.85 11.15 26.69C11.19 26.53 11.1 26.58 11.15 26.52C11.06 26.25 11.06 26 10.97 25.73C11.24 26.43 11.49 27.09 11.79 27.79C11.84 27.79 11.79 27.69 11.79 27.65C11.56 26.8 11.33 25.88 11.12 25.02C12.48 24.68 13.91 24.39 15.34 24.11C15.4685 24.0811 15.5988 24.0611 15.73 24.05C16.11 23.97 16.45 23.96 16.83 23.88C16.9503 23.843 17.0744 23.8195 17.2 23.81C17.2963 23.7975 17.3937 23.7975 17.49 23.81C17.84 23.76 18.28 23.72 18.64 23.71C18.58 23.71 18.64 23.85 18.64 23.93C18.64 24.01 18.64 24.13 18.71 24.21C18.78 24.29 18.71 24.3 18.71 24.35V24.53C18.71 24.58 18.8 24.53 18.84 24.47V23.82C18.84 23.82 18.79 23.7 18.84 23.69C19.95 23.63 20.97 23.69 22.16 23.69C22.43 23.69 22.67 23.74 22.98 23.69C23.29 23.64 23.89 23.8 24.31 23.88C24.31 24.1 24.26 24.29 24.26 24.52C24.26 24.75 24.18 24.67 24.26 24.75C24.34 24.83 24.26 24.88 24.26 24.97V25.29C24.2773 25.303 24.2984 25.31 24.32 25.31C24.3416 25.31 24.3627 25.303 24.38 25.29C24.48 25.22 24.46 25.02 24.51 24.94C24.56 24.86 24.56 24.8 24.51 24.71C24.46 24.62 24.61 24.63 24.56 24.58C24.51 24.53 24.65 24.45 24.56 24.37L24.71 23.88C25.85 24.01 26.94 24.3 28.06 24.53H28.28L28.54 24.59C28.4855 24.6953 28.442 24.8059 28.41 24.92H28.52C28.54 24.92 28.66 24.69 28.72 24.53C28.99 24.62 29.36 24.68 29.63 24.75L29.92 24.83C29.68 25.78 29.45 26.65 29.19 27.57C29.19 27.57 29.19 27.64 29.24 27.57L30.3 24.89C30.2145 25.0433 30.1665 25.2146 30.16 25.39C30.16 25.56 29.94 25.71 30.1 25.84C30.27 25.84 30.25 25.6 30.32 25.45C30.387 25.3052 30.4405 25.1546 30.48 25C30.48 25 30.56 25 30.53 24.95L31.07 25.09C30.74 26.09 30.51 27.09 30.17 28.09H30.22C30.69 27.14 31.11 26.14 31.57 25.18C31.71 25.18 31.84 25.29 31.97 25.28C31.91 25.68 31.74 26.09 31.66 26.47C31.4571 26.4517 31.2529 26.4517 31.05 26.47L31.4 27.41C31.3 27.81 31.17 28.19 31.07 28.59L30.61 28.42C30.61 28.42 30.61 28.36 30.67 28.36C30.714 28.3291 30.7485 28.2865 30.7697 28.237C30.7909 28.1876 30.7979 28.1332 30.79 28.08V27.91C30.79 27.91 30.85 27.66 30.87 27.52C30.7939 27.5071 30.7161 27.5071 30.64 27.52C30.6587 27.5983 30.6566 27.6801 30.6338 27.7574C30.611 27.8346 30.5683 27.9044 30.51 27.96C30.51 27.96 30.46 28.02 30.51 28.02V28.16C30.58 28.16 30.51 28.24 30.51 28.29C30.3137 28.2568 30.1199 28.21 29.93 28.15C29.3 27.96 28.6 27.83 27.93 27.69C27.93 27.64 27.84 27.69 27.81 27.69C27.29 27.69 26.66 27.5 26.13 27.43C25.84 27.43 25.48 27.34 25.2 27.34C24.92 27.34 24.85 27.34 24.74 27.27C24.5438 27.251 24.3462 27.251 24.15 27.27C24.06 27.22 23.91 27.27 23.79 27.22C22.86 27.16 21.88 27.12 20.88 27.13H20.8C20.28 27.13 19.68 27.18 19.12 27.13C18.8075 27.1619 18.4925 27.1619 18.18 27.13C17.78 27.13 17.39 27.21 16.95 27.22C16.8103 27.2328 16.6697 27.2328 16.53 27.22C16.53 27.12 16.6 27 16.53 26.94C16.3 26.94 16.53 27.31 16.25 27.26C15.97 27.21 15.37 27.31 15.01 27.39C13.5501 27.5397 12.1093 27.8379 10.71 28.28C10.63 28.07 10.54 27.88 10.47 27.66C10.459 27.6502 10.4448 27.6447 10.43 27.6447C10.4152 27.6447 10.401 27.6502 10.39 27.66C10.39 27.66 10.3 27.76 10.39 27.81H10.34C10.34 27.86 10.43 27.95 10.4 28C10.37 28.05 10.4 28 10.32 28C10.24 28 10.24 28.18 10.2 28.3C10.16 28.42 10.06 28.18 9.93999 28.2V28.26L9.66999 27.26C9.78999 26.97 9.90999 26.66 10.02 26.36H9.38999C9.32999 26.06 9.23999 25.78 9.15999 25.5C9.20214 25.4923 9.2407 25.4713 9.26999 25.44C9.26999 25.36 9.33999 25.39 9.37999 25.36C9.41999 25.33 9.46999 25.46 9.44999 25.52C9.42999 25.58 9.52999 25.64 9.59999 25.65C9.66999 25.66 9.68999 25.65 9.68999 25.55L9.65999 25.89ZM31.83 28.89C31.76 28.98 31.73 29.19 31.59 29.19C31.4758 29.1127 31.3513 29.0521 31.22 29.01L31.63 28.15C31.68 28.33 31.9 28.57 31.78 28.8C31.77 28.82 31.79 28.9 31.83 28.89ZM10.42 28.83V28.77C10.42 28.77 10.44 28.82 10.42 28.82V28.83ZM9.88999 28.95C9.87908 28.9264 9.8594 28.908 9.83513 28.8986C9.81086 28.8893 9.78391 28.8898 9.75999 28.9C9.74339 28.9114 9.72944 28.9262 9.71909 28.9435C9.70873 28.9607 9.70222 28.98 9.69999 29C9.58999 28.95 9.61999 28.7 9.48999 28.72C9.35999 28.74 9.48999 28.46 9.39999 28.36L9.50999 28.09L9.88999 28.95ZM32.7 26.83H32.24C32.41 26.5 32.53 26.15 32.7 25.83C32.7872 25.8678 32.8776 25.8979 32.97 25.92C32.89 26.04 32.92 26.2 32.81 26.32C32.7574 26.4862 32.7206 26.6569 32.7 26.83ZM32.96 26.83H32.83C32.895 26.5563 32.9994 26.2936 33.14 26.05V26C33.21 26.06 33.33 26 33.41 26.05C33.26 26.29 33.13 26.59 33 26.83H32.96ZM33.57 25.22C33.3729 25.2063 33.1814 25.1482 33.01 25.05C32.38 24.82 31.7 24.64 31.01 24.42C30.93 24.42 30.79 24.36 30.69 24.34C30.59 24.32 30.25 24.23 30.04 24.15L29.78 24.08C29.11 23.9 28.33 23.75 27.64 23.58C27.13 23.48 26.64 23.36 26.2 23.3C26.1321 23.2756 26.0579 23.2756 25.99 23.3C25.7198 23.243 25.4457 23.2062 25.17 23.19C23.981 22.9832 22.7768 22.8762 21.57 22.87C21.49 22.77 21.4 22.87 21.29 22.87H20.1C19.7076 22.8308 19.3123 22.8308 18.92 22.87C18.4143 22.8709 17.9095 22.911 17.41 22.99C17.06 22.99 16.65 23.13 16.32 23.12C16.2026 23.1553 16.082 23.1788 15.96 23.19L14.68 23.43C13.81 23.56 12.92 23.8 12.07 23.97C10.92 24.29 9.70999 24.59 8.61999 24.97C8.25369 25.1424 7.85478 25.2344 7.44999 25.24C7.39999 25.24 7.44999 25.15 7.44999 25.14C7.44999 25.13 7.38999 25.14 7.39999 25.09C7.40999 25.04 7.39999 24.95 7.49999 24.89C7.86999 24.66 8.32999 24.53 8.69999 24.33C10.2124 23.7336 11.78 23.2881 13.38 23C14.66 22.84 15.89 22.55 17.21 22.49C17.27 22.43 17.31 22.49 17.39 22.49C18.2526 22.3765 19.1204 22.3065 19.99 22.28C20.1297 22.2678 20.2703 22.2678 20.41 22.28H20.56H20.65C20.66 22.28 20.8 22.35 20.85 22.28C20.9 22.21 21.01 22.28 21.08 22.28V22.23C22.15 22.31 23.26 22.4 24.31 22.5C24.55 22.59 24.78 22.5 25.03 22.62C25.62 22.62 26.21 22.77 26.79 22.86C27.37 22.95 27.97 23.09 28.56 23.14C29.45 23.35 30.38 23.56 31.25 23.82C32.0075 24.0458 32.7464 24.33 33.46 24.67C33.46 24.67 33.29 24.67 33.34 24.77C33.39 24.87 33.83 24.92 33.93 25.13C33.869 25.1117 33.8042 25.1105 33.7425 25.1263C33.6808 25.1422 33.6246 25.1746 33.58 25.22H33.57ZM34 22.5C33.8713 22.812 33.7175 23.113 33.54 23.4C33.4474 23.4874 33.343 23.5614 33.23 23.62C32.92 23.84 32.64 23.52 32.34 23.52C31.242 23.2112 30.1267 22.9674 29 22.79C29 22.73 29 22.79 28.94 22.79C28.71 22.65 28.48 22.79 28.3 22.6C28.3 22.67 28.2 22.6 28.19 22.6C27.8967 22.5158 27.5947 22.4655 27.29 22.45C27.1904 22.4635 27.0895 22.4635 26.99 22.45H26.54C26.4304 22.4359 26.3195 22.4359 26.21 22.45C25.98 22.45 25.8 22.37 25.57 22.45C25.5001 22.456 25.4299 22.456 25.36 22.45C25.36 22.45 25.29 22.51 25.22 22.45C25.15 22.39 24.99 22.36 24.87 22.45V22.39C24.87 22.49 24.73 22.39 24.65 22.39V22.31V22.36C24.65 22.41 24.6 22.36 24.57 22.36C24.51 22.36 24.45 22.36 24.45 22.3V22.35C24.2405 22.3378 24.0327 22.3043 23.83 22.25H23.74C23.6544 22.269 23.5656 22.269 23.48 22.25C23.42 22.25 23.32 22.33 23.28 22.25C23.23 22.35 23.12 22.25 23.05 22.25C22.98 22.25 23.05 22.3 22.96 22.25C22.8755 22.2573 22.7911 22.2362 22.72 22.19H22.64C22.5471 22.2024 22.4529 22.2024 22.36 22.19H21.99C21.8255 22.152 21.6545 22.152 21.49 22.19C21.3 22.26 21.02 22.19 20.81 22.19C20.6 22.19 20.28 22.19 20.07 22.24C19.32 22.3 18.57 22.34 17.85 22.42C16.57 22.53 15.4 22.69 14.14 22.82C14.04 22.87 13.86 22.82 13.74 22.89C11.9414 23.1025 10.1669 23.4842 8.43999 24.03C8.38999 23.98 8.32999 24.03 8.26999 23.98C8.20999 23.93 8.17999 23.98 8.17999 23.88C8.17999 23.81 8.07999 23.74 8.08999 23.65C7.91999 23.53 7.85999 23.28 7.73999 23.1C7.95999 22.99 8.03999 22.78 8.33999 22.86C8.33999 22.73 8.47999 22.75 8.59999 22.75C8.93677 22.6992 9.255 22.5632 9.5245 22.355C9.79401 22.1467 10.0059 21.8731 10.14 21.56C10.31 21.56 10.37 21.73 10.52 21.77C10.9205 21.9483 11.3603 22.0198 11.7966 21.9778C12.2329 21.9357 12.6509 21.7815 13.01 21.53C13.3227 21.2986 13.5397 20.9606 13.62 20.58C13.9688 20.8375 14.3753 21.0058 14.8041 21.0703C15.2328 21.1348 15.6708 21.0935 16.08 20.95C16.5465 20.7618 16.925 20.4048 17.14 19.95C17.3635 20.1527 17.6008 20.3398 17.85 20.51C18.1107 20.6465 18.3857 20.7538 18.67 20.83C18.759 20.8114 18.851 20.8114 18.94 20.83C19.3199 20.8674 19.703 20.8071 20.053 20.6549C20.4031 20.5026 20.7084 20.2634 20.94 19.96C21.2257 20.3263 21.6149 20.5984 22.0571 20.7411C22.4992 20.8837 22.974 20.8903 23.42 20.76C23.932 20.6254 24.3896 20.3355 24.73 19.93C24.9378 20.3139 25.2551 20.6272 25.6415 20.8302C26.0279 21.0332 26.466 21.1167 26.9 21.07C27.396 21.0127 27.8683 20.8265 28.27 20.53C28.3646 20.8497 28.5377 21.1407 28.7735 21.3765C29.0093 21.6123 29.3003 21.7853 29.62 21.88C30.0365 21.9875 30.4735 21.9875 30.89 21.88C31.1965 21.8091 31.4878 21.6838 31.75 21.51C31.9084 21.8912 32.1808 22.214 32.5299 22.4343C32.8791 22.6545 33.2878 22.7613 33.7 22.74C33.8831 22.7538 34.0669 22.7538 34.25 22.74H34.35L34 22.5ZM35.25 20.68C34.8954 20.3745 34.4477 20.1983 33.98 20.18C33.88 20.18 33.79 20.26 33.78 20.37C33.8145 20.5486 33.8891 20.717 33.9982 20.8626C34.1074 21.0081 34.2482 21.1269 34.41 21.21C34.4418 21.3313 34.4418 21.4587 34.41 21.58C34.2608 21.7019 34.0726 21.7658 33.88 21.76H33.65C33.07 21.76 32.42 21.76 32.1 21.16C31.9912 20.9765 31.9488 20.7611 31.98 20.55C32.13 20.38 32.42 20.25 32.42 19.97C32.4329 19.8657 32.4196 19.7598 32.3812 19.662C32.3427 19.5642 32.2805 19.4776 32.2 19.41C32.1074 19.3429 32.0001 19.2988 31.8871 19.2815C31.774 19.2641 31.6585 19.2738 31.55 19.31C31.4405 19.3671 31.349 19.4534 31.2854 19.5593C31.2219 19.6651 31.1889 19.7865 31.19 19.91C31.19 20.05 31.24 20.18 31.33 20.25C31.24 20.33 31.33 20.51 31.18 20.52C30.9575 20.7697 30.6727 20.9559 30.3547 21.0595C30.0367 21.1632 29.6969 21.1806 29.37 21.11C29.1748 21.0394 29.0012 20.9194 28.8662 20.7616C28.7313 20.6039 28.6395 20.4138 28.6 20.21V20.1H28.93L29.3 20.04C29.4792 20.0835 29.6682 20.0586 29.83 19.97C29.92 19.97 29.83 19.84 29.89 19.79C29.7 19.38 29.32 19.28 28.95 19.09C29.0335 18.8582 29.084 18.6158 29.1 18.37C29.3276 18.5757 29.5414 18.7962 29.74 19.03C30.05 18.94 30.37 18.89 30.65 18.8C31.43 18.62 32.26 18.4 33.02 18.25H33.07C33.6315 17.0194 33.97 15.6989 34.07 14.35C34.1014 14.2871 34.148 14.2331 34.2057 14.1929C34.2633 14.1527 34.3301 14.1277 34.4 14.12C34.894 14.3999 35.3192 14.7868 35.6445 15.2522C35.9697 15.7176 36.1869 16.2499 36.28 16.81C36.2168 17.243 36.0526 17.6551 35.8007 18.013C35.5488 18.3708 35.2163 18.6644 34.83 18.87C35.17 19.25 35.59 19.59 35.89 19.93C35.6221 20.1334 35.3977 20.3885 35.23 20.68H35.25Z" fill="black"/>
<path d="M8.26001 31.4C8.26099 31.409 8.264 31.4177 8.26882 31.4254C8.27365 31.4331 8.28016 31.4396 8.28786 31.4444C8.29557 31.4493 8.30426 31.4523 8.3133 31.4532C8.32233 31.4542 8.33146 31.4531 8.34001 31.45C8.34001 31.45 8.27001 31.44 8.26001 31.4Z" fill="black"/>
<path d="M8.26001 31.4C8.26099 31.409 8.264 31.4177 8.26882 31.4254C8.27365 31.4331 8.28016 31.4396 8.28786 31.4444C8.29557 31.4493 8.30426 31.4523 8.3133 31.4532C8.32233 31.4542 8.33146 31.4531 8.34001 31.45C8.34001 31.45 8.27001 31.44 8.26001 31.4ZM8.38001 31.73L8.40001 31.72L8.33001 31.69L8.38001 31.73Z" fill="black"/>
<path d="M8.37999 31.73L8.39999 31.72L8.32999 31.69L8.37999 31.73Z" fill="black"/>
</g>
<defs>
<clipPath id="clip0_1_14">
<rect width="115" height="87" fill="white"/>
</clipPath>
</defs>
</svg>
